<svg version="1.1" id="Layer_1" xmlns="http://www.w3.org/2000/svg" x="0" y="0" viewBox="200 230 230 230" style="enable-background:new 0 0 595.3 841.9" xml:space="preserve"><style>.st2{fill:#fff}</style><g id="XMLID_810_"><path id="XMLID_811_" d="M143.7 1119c-1.5-.7-8.8-4.3-10.1-4.8-1.4-.5-2.4-.7-3.3.7-1 1.5-3.9 4.8-4.7 5.7-.9 1-1.7 1.1-3.2.4-1.5-.7-6.3-2.3-11.9-7.3-4.4-3.9-7.4-8.7-8.2-10.2-.8-1.5-.1-2.3.7-3 .7-.7 1.5-1.7 2.2-2.6.2-.3.4-.5.5-.7.3-.5.6-1 .9-1.8.5-1 .3-1.8-.1-2.6-.4-.7-3.3-8-4.6-10.9-1.2-2.9-2.5-2.4-3.3-2.4-.9 0-1.8-.1-2.8-.1-1 0-2.6.4-4 1.8-1.4 1.5-5.2 5-5.2 12.3 0 1.7.3 3.4.8 5 1.5 5.2 4.7 9.5 5.3 10.2.7 1 10.3 16.3 25.3 22.2 15.1 5.9 15.1 3.9 17.8 3.7 2.7-.2 8.8-3.5 10-7 1.2-3.4 1.2-6.4.9-7-.6-.5-1.6-.8-3-1.6z" style="fill-rule:evenodd;clip-rule:evenodd;fill:#33403f"/></g><path d="M118 1043.6c-35.2 0-63.7 28.5-63.7 63.7S82.8 1171 118 1171s63.7-28.5 63.7-63.7-28.5-63.7-63.7-63.7zm0 117c-30 0-54.3-23.9-54.3-53.4s24.3-53.4 54.3-53.4c30 0 54.3 23.9 54.3 53.4.1 29.5-24.3 53.4-54.3 53.4z" style="fill:#33403f"/><g id="XMLID_1_"><path id="XMLID_239_" class="st2" d="M182.6 457.4V223.8h252.7v233.6H182.6zm73.2-74.3v24.7c0 4 .2 4.3 4.3 4.4 1.6.1 2.5.1 2.5 2.4-.2 6.5.2 13.1.2 19.6 0 3.8.5 4.7 4.3 4.7h82.7c4.2 0 4.8-.8 4.7-4.6-.1-6.3 0-12.5-.1-18.8 0-2.6.8-3.8 3.6-3.4 2.4.3 3.5-.9 3.4-3.3-.1-1.4 0-2.8 0-4.1v-21.5c5.7-.6 5.7-.6 5.7-6.2 0-1.9-.1-3.8 0-5.7.1-2.3-.7-3.7-3.2-3.7-2.1 0-2.6-1.1-2.6-3.1.1-10.2 0-20.4 0-30.5 0-6.2 0-6.2-6.2-6.5-.2 0-.4-.2-.8-.4 0-7.1-.1-14.3 0-21.4.1-4 0-4.2-4-4.2h-83c-4.9 0-4.7 0-4.7 4.8.1 6.4 0 12.7 0 19.1 0 .7-.2 1.4-.2 2.1-6.7.4-6.7.4-6.7 7.1v32.7c-5.7.2-5.7.2-5.7 5.8v3.8c.1 5.7.1 5.7 5.8 6.2zM315.6 276h9.8c2.5 0 3-1.6 2.8-3.6-.9-8.1-2.1-16.1-3-24.1-.5-4.6-1.2-5.9-4.3-5.9-5.8-.1-11.6-.1-17.5 0-2.9 0-3.9 1.6-3.3 4.5.8 4.5 1.4 9.1 2.2 14-3.6 0-6.9-.1-10.1.1-1 .1-2.2.7-2.9 1.4-.3.3.2 1.7.7 2.4 7.5 10.5 15 20.9 22.6 31.3.5.7 2 1 3 .9.5 0 1.2-1.4 1.2-2.1 0-2.1-.3-4.2-.4-6.3-.3-4.2-.5-8.3-.8-12.6z"/><path id="XMLID_228_" d="M255.8 383.1c-5.7-.5-5.7-.5-5.7-6.2v-3.8c0-5.6 0-5.6 5.7-5.8v-32.7c0-6.7 0-6.7 6.7-7.1.1-.7.2-1.4.2-2.1 0-6.4.1-12.7 0-19.1-.1-4.8-.2-4.8 4.7-4.8h83c4.1 0 4.1.2 4 4.2-.1 7.2 0 14.4 0 21.4.4.2.6.4.8.4 6.2.3 6.2.3 6.2 6.5 0 10.2.1 20.4 0 30.5 0 2 .5 3.1 2.6 3.1 2.5 0 3.3 1.4 3.2 3.7-.1 1.9 0 3.8 0 5.7 0 5.5 0 5.5-5.7 6.2v21.5c0 1.4-.1 2.8 0 4.1.1 2.4-1 3.7-3.4 3.3-2.8-.4-3.6.8-3.6 3.4.1 6.3-.1 12.5.1 18.8.1 3.8-.5 4.6-4.7 4.6h-82.7c-3.8 0-4.4-.9-4.3-4.7.1-6.5-.4-13.1-.2-19.6.1-2.4-.8-2.4-2.5-2.4-4.1-.1-4.3-.4-4.3-4.4-.1-8.2-.1-16.3-.1-24.7zm101-15.6v-34.7h-96.4v34.7h96.4zm-96.4 40h96.4V383h-96.4v24.5zM362 372.3H255.4v6H362v-6zm-36.9-45h24.6v-21.5h-22.1c-2.1 0-2.5 1.3-2.5 2.8v18.7zm24.7 106.4v-21.6h-22.4c-2.2 0-2.3 1.3-2.3 2.9v18.7h24.7zm-57.8.1c-.2-.7-.5-1.3-.4-1.9.1-5.7.4-11.4.4-17 0-.9-1.1-2.5-1.8-2.6-7.6-.2-15.2-.1-22.8-.1v21.6H292zm28.5-.1v-21.4h-23.8v21.4h23.8zm-23.9-106.4h23.9v-21.2h-23.9v21.2zm-5.3-21.2h-23.9v21.3h23.9v-21.3z"/><path id="XMLID_225_" d="M315.6 276c.3 4.4.6 8.4.8 12.4.1 2.1.4 4.2.4 6.3 0 .8-.7 2.1-1.2 2.1-1 .1-2.5-.2-3-.9-7.6-10.4-15.1-20.8-22.6-31.3-.5-.7-1-2.1-.7-2.4.7-.7 1.9-1.3 2.9-1.4 3.3-.2 6.5-.1 10.1-.1-.7-4.8-1.4-9.4-2.2-14-.5-2.9.4-4.4 3.3-4.5 5.8-.1 11.6-.1 17.5 0 3 0 3.8 1.4 4.3 5.9.9 8.1 2 16.1 3 24.1.2 1.9-.3 3.6-2.8 3.6-3.2.2-6.3.2-9.8.2zm-10.9-28.7c.9 4.9 1.7 9.4 2.6 13.9.5 2.5-.6 3.9-3.4 3.9H296c5.4 7.4 10.5 14.4 15.9 21.9-.4-4-.7-7.4-1.2-10.8-.4-3.1.4-5.1 3.9-4.8 2.8.2 5.7.1 8.8.1-.2-1.9-.4-3.5-.6-5.2-.7-5.7-1.2-11.4-2-17.1-.1-.8-1.4-1.9-2.2-1.9-4.6-.1-9.1 0-13.9 0z"/><path id="XMLID_222_" class="st2" d="M356.8 367.5h-96.4v-34.7h96.4v34.7zm-81-29.8c-2.6 0-5.3.1-7.9 0-2.1-.1-3.1.8-3.1 3v11.7c0 2.1 1 3 3.1 3h15.9c2.1 0 3.1-.9 3.1-3v-11.7c0-2.2-1-3-3.1-3-2.7.1-5.3 0-8 0z"/><path id="XMLID_217_" class="st2" d="M260.4 407.5V383h96.4v24.5h-96.4zm18.2-16c0-1.2.3-2.4 0-3.4-.3-.9-1.4-1.8-2.3-1.9-.5-.1-1.7 1.2-1.8 2-.3 2.2-.3 4.4 0 6.6.1.8 1.2 1.9 1.9 2 .7 0 1.8-1 2.1-1.8.3-1.1.1-2.4.1-3.5zm64.3.3c0-1.4.3-2.5-.1-3.4-.3-.9-1.3-1.6-2-2.4-.8.8-1.8 1.5-2.2 2.5-.4.9-.2 2.1-.1 3.1.1 2-.8 5 2.1 5.1 3.4 0 2-3.2 2.3-4.9zm-31.4.1c-.2-.1-.5-.3-.7-.4-.1-1.3.1-2.6-.3-3.8-.3-.8-1.3-1.6-2.1-1.8-.5-.1-1.6 1-1.8 1.7-.3 1.2-.3 2.5-.2 3.8.3 2-1.1 5.1 2.3 5.1 1 .1 1.9-2.9 2.8-4.6z"/><path id="XMLID_216_" class="st2" d="M362 372.3v6H255.4v-6H362z"/><path id="XMLID_213_" class="st2" d="M325.1 327.3v-18.7c0-1.6.4-2.9 2.5-2.8 7.3.1 14.6 0 22.1 0v21.5h-24.6zm6.4-10.5c0 3.5 2.7 6.3 6.1 6.2 3.3-.1 6-2.8 6-6.1.1-3.4-2.7-6.2-6.2-6.1-3.4 0-5.9 2.5-5.9 6z"/><path id="XMLID_210_" class="st2" d="M349.8 433.7h-24.7V415c0-1.6.1-3 2.3-2.9 7.4.1 14.8 0 22.4 0v21.6zm-18.3-10.4c.1 3.4 2.7 6 6 6s6.2-2.9 6.1-6.3c0-3.4-2.9-6-6.4-5.9-3.4.1-5.8 2.6-5.7 6.2z"/><path id="XMLID_207_" class="st2" d="M292 433.8h-24.6v-21.6c7.6 0 15.2-.1 22.8.1.6 0 1.8 1.7 1.8 2.6 0 5.7-.3 11.4-.4 17 0 .6.2 1.1.4 1.9zm-6.3-10.6c0-3.5-2.4-6-5.8-6.1-3.5-.1-6.3 2.6-6.3 6s2.9 6.3 6.2 6.2c3.4-.1 5.9-2.7 5.9-6.1z"/><path id="XMLID_204_" class="st2" d="M320.5 433.7h-23.8v-21.4h23.8v21.4zm-11.1-16.6c-3.6.1-6.1 2.7-5.9 6.4.1 3.4 2.8 6 6.1 5.9 3.4 0 6.1-2.9 6-6.5-.1-3.4-2.7-5.9-6.2-5.8z"/><path id="XMLID_201_" class="st2" d="M296.6 327.3v-21.2h23.9v21.2h-23.9zm19-10.4c0-3.6-2.6-6.2-6.2-6.2-3.4 0-6 2.6-6 6.1 0 3.6 2.7 6.3 6.1 6.3 3.5-.1 6.1-2.8 6.1-6.2z"/><path id="XMLID_198_" class="st2" d="M291.3 306.1v21.3h-23.9v-21.3h23.9zm-5.5 10.8c0-3.6-2.6-6.3-6.1-6.2-3.3 0-6 2.7-6.1 6-.1 3.6 2.5 6.3 6 6.4 3.4 0 6.2-2.7 6.2-6.2z"/><path id="XMLID_197_" class="st2" d="M304.7 247.3c4.9 0 9.3-.1 13.7.1.8 0 2.1 1.2 2.2 1.9.8 5.7 1.4 11.4 2 17.1.2 1.6.4 3.2.6 5.2-3.1 0-5.9.2-8.8-.1-3.5-.3-4.3 1.6-3.9 4.8.5 3.3.8 6.7 1.2 10.8-5.5-7.5-10.5-14.4-15.9-21.9h7.9c2.8 0 3.9-1.4 3.4-3.9-.7-4.6-1.5-9-2.4-14z"/><path id="XMLID_194_" d="M275.8 337.7c2.6 0 5.3.1 7.9 0 2.1-.1 3.2.8 3.1 3v11.7c0 2.1-1 3.1-3.1 3h-15.9c-2.1 0-3.2-.9-3.1-3v-11.7c0-2.1 1-3 3.1-3 2.7.1 5.4 0 8 0zm-7.2 4c0 2.9-.1 5.5.1 8.1.1.6 1.2 1.6 2 1.7 3.5.2 7 .2 10.4 0 .7 0 1.8-1.1 1.8-1.8.2-2.6.1-5.2.1-8h-14.4z"/><path id="XMLID_193_" d="M278.6 391.5c0 1.2.3 2.4-.1 3.4-.3.8-1.4 1.8-2.1 1.8-.7 0-1.8-1.2-1.9-2-.3-2.2-.3-4.4 0-6.6.1-.8 1.3-2.1 1.8-2 .9.1 2 1.1 2.3 1.9.3 1 0 2.3 0 3.5z"/><path id="XMLID_192_" d="M342.9 391.8c-.4 1.6 1.1 4.9-2.3 4.8-2.9-.1-1.9-3.2-2.1-5.1-.1-1-.3-2.2.1-3.1.4-1 1.5-1.7 2.2-2.5.7.8 1.6 1.5 2 2.4.4 1 .1 2.1.1 3.5z"/><path id="XMLID_191_" d="M311.5 391.9c-.9 1.6-1.9 4.7-2.8 4.7-3.4 0-2-3.2-2.3-5.1-.2-1.2-.2-2.6.2-3.8.2-.7 1.3-1.8 1.8-1.7.8.1 1.8 1 2.1 1.8.4 1.1.2 2.5.3 3.8.3.1.5.2.7.3z"/><path id="XMLID_188_" d="M331.5 316.8c0-3.5 2.5-6 5.9-6 3.5 0 6.3 2.7 6.2 6.1 0 3.3-2.7 6-6 6.1-3.4.1-6.1-2.6-6.1-6.2zm9.3.1c-1.5-1-2.4-1.9-3.3-2-.7 0-1.4 1.1-2.1 1.8.7.8 1.3 2.1 2.1 2.2.8.1 1.7-1 3.3-2z"/><path id="XMLID_185_" d="M331.5 423.3c-.1-3.5 2.3-6.1 5.7-6.2 3.5-.1 6.4 2.5 6.4 5.9 0 3.4-2.8 6.3-6.1 6.3s-5.9-2.6-6-6zm9.2-.3c-1.4-.9-2.3-2-3.1-1.9-.8.1-1.5 1.3-2.2 2 .8.8 1.5 2.1 2.4 2.3.5 0 1.5-1.3 2.9-2.4z"/><path id="XMLID_182_" d="M285.7 423.2c0 3.4-2.6 6.1-5.9 6.2-3.3.1-6.2-2.8-6.2-6.2 0-3.4 2.8-6.1 6.3-6 3.5-.1 5.9 2.4 5.8 6zm-2.7 0c-1.6-1.1-2.5-2.3-3.1-2.2-.9.2-2.1 1.3-2.3 2.2-.1.6 1.2 2.1 2 2.1.9.1 1.8-1.1 3.4-2.1z"/><path id="XMLID_179_" d="M309.4 417.1c3.4-.1 6.1 2.5 6.2 5.8.1 3.6-2.6 6.4-6 6.5-3.3 0-6-2.6-6.1-5.9-.1-3.8 2.3-6.4 5.9-6.4zm.2 9.3c1-1.4 2.2-2.4 2.1-3.1-.2-.9-1.5-1.5-2.3-2.3-.7.8-1.9 1.5-1.9 2.3 0 .8 1.1 1.6 2.1 3.1z"/><path id="XMLID_176_" d="M315.6 316.9c0 3.4-2.6 6.1-6 6.1-3.4.1-6.1-2.7-6.1-6.3 0-3.5 2.5-6 6-6.1 3.5.1 6.1 2.8 6.1 6.3zm-2.9-.3c-1.5-.9-2.4-1.9-3.2-1.8-.8.1-1.4 1.3-2.2 2 .8.8 1.5 2 2.5 2.2.6.1 1.5-1.2 2.9-2.4z"/><path id="XMLID_173_" d="M285.8 316.9c0 3.5-2.7 6.3-6.2 6.2-3.5-.1-6.1-2.8-6-6.4.1-3.3 2.7-6 6.1-6 3.5-.1 6.1 2.6 6.1 6.2zm-6.3 3.3c1.2-1.5 2.3-2.3 2.3-3.2 0-.8-1.1-2.2-1.8-2.2-.8 0-2.3 1-2.3 1.7-.1 1 .8 2 1.8 3.7z"/><path id="XMLID_172_" class="st2" d="M268.6 341.7H283c0 2.8.1 5.4-.1 8-.1.7-1.2 1.8-1.8 1.8-3.5.2-7 .2-10.4 0-.7 0-1.9-1-2-1.7-.2-2.6-.1-5.2-.1-8.1z"/><path id="XMLID_171_" class="st2" d="M340.8 316.9c-1.5 1-2.5 2.1-3.3 2-.8-.1-1.4-1.4-2.1-2.2.7-.6 1.4-1.8 2.1-1.8.9 0 1.8 1 3.3 2z"/><path id="XMLID_170_" class="st2" d="M340.7 423c-1.4 1.1-2.3 2.5-3 2.3-.9-.2-1.6-1.5-2.4-2.3.7-.7 1.4-1.9 2.2-2 .8 0 1.7 1 3.2 2z"/><path id="XMLID_169_" class="st2" d="M283 423.2c-1.6 1.1-2.6 2.2-3.4 2.1-.7 0-2.1-1.5-2-2.1.2-.9 1.3-2 2.3-2.2.6-.1 1.6 1 3.1 2.2z"/><path id="XMLID_168_" class="st2" d="M309.6 426.4c-1-1.4-2.1-2.3-2.1-3.1 0-.8 1.2-1.5 1.9-2.3.8.7 2.1 1.4 2.3 2.3.1.6-1.1 1.6-2.1 3.1z"/><path id="XMLID_167_" class="st2" d="M312.7 316.6c-1.4 1.2-2.3 2.5-2.9 2.4-.9-.2-1.6-1.4-2.5-2.2.7-.7 1.4-1.9 2.2-2 .8-.1 1.7.9 3.2 1.8z"/><path id="XMLID_166_" class="st2" d="M279.5 320.2c-.9-1.7-1.9-2.7-1.9-3.7 0-.7 1.5-1.7 2.3-1.7.7 0 1.8 1.4 1.8 2.2 0 .9-1.1 1.7-2.2 3.2z"/></g></svg>