<svg version="1.1" id="Layer_1" xmlns="http://www.w3.org/2000/svg" x="0" y="0" viewBox="170 270 250 200" style="enable-background:new 0 0 595.3 841.9" xml:space="preserve"><style>.st2{fill:#fff}</style><g id="XMLID_810_"><path id="XMLID_811_" d="M143.7 1119c-1.5-.7-8.8-4.3-10.1-4.8-1.4-.5-2.4-.7-3.3.7-1 1.5-3.9 4.8-4.7 5.7-.9 1-1.7 1.1-3.2.4-1.5-.7-6.3-2.3-11.9-7.3-4.4-3.9-7.4-8.7-8.2-10.2-.8-1.5-.1-2.3.7-3 .7-.7 1.5-1.7 2.2-2.6.2-.3.4-.5.5-.7.3-.5.6-1 .9-1.8.5-1 .3-1.8-.1-2.6-.4-.7-3.3-8-4.6-10.9-1.2-2.9-2.5-2.4-3.3-2.4-.9 0-1.8-.1-2.8-.1-1 0-2.6.4-4 1.8-1.4 1.5-5.2 5-5.2 12.3 0 1.7.3 3.4.8 5 1.5 5.2 4.7 9.5 5.3 10.2.7 1 10.3 16.3 25.3 22.2 15.1 5.9 15.1 3.9 17.8 3.7 2.7-.2 8.8-3.5 10-7 1.2-3.4 1.2-6.4.9-7-.6-.5-1.6-.8-3-1.6z" style="fill-rule:evenodd;clip-rule:evenodd;fill:#33403f"/></g><path d="M118 1043.6c-35.2 0-63.7 28.5-63.7 63.7S82.8 1171 118 1171s63.7-28.5 63.7-63.7-28.5-63.7-63.7-63.7zm0 117c-30 0-54.3-23.9-54.3-53.4s24.3-53.4 54.3-53.4c30 0 54.3 23.9 54.3 53.4.1 29.5-24.3 53.4-54.3 53.4z" style="fill:#33403f"/><g id="XMLID_1_"><path id="XMLID_102_" class="st2" d="M419.2 479.4H185.6V263.5h233.6v215.9zm-56-144.7c8.1 5.3 15.4 10.9 20 19.1 6.4 11.4 4.9 23-.2 34.4-8.5 18.8-22.4 32.8-40.1 43.1-10.4 6.1-21.6 9.9-33.7 9.7-4.4 0-8.8-1.3-13.3-2.1-2-.4-3.6.1-4.2 2.2-.6 2 .3 3.4 2.2 4.2.6.3 1.3.4 2 .5 10.6 2.2 21.3 1.8 31.7-1 24.5-6.6 42-22.4 55.6-43 5.3-7.9 9.1-16.4 10.3-26.1 1.9-14.1-2.9-25.8-12.4-35.7-6.5-6.7-14.5-11.6-22.9-15.7-1-.5-2-1.2-2.8-2-6.9-7.2-14.9-13-24.1-16.9-19.2-8-39.1-9.1-59.3-4.7-15.3 3.4-29 9.9-39.4 22.2-1.4 1.6-2.5 3.5-4 5-3.4 3.5-7.5 6.4-10.5 10.2-15.5 20-24.2 42.4-21.3 68.2 1.9 16.1 10.3 28 25.2 34.9 11.3 5.2 23.4 6.1 35.6 6.1 1.2 0 2.5-.1 3.4-.7 1-.7 2.1-2.2 1.9-3.1-.2-1.1-1.5-2.4-2.6-3-1-.5-2.5-.1-3.8-.1-8.6.3-17-.5-25.2-3.1-13.3-4.1-23.7-11.7-26.7-26-1.4-6.9-2-14.3-1.3-21.2 1.1-11.2 4.6-22 9.9-32 2.9-5.4 6.4-10.5 9.6-15.8l1.2.6c-.5 1.3-.8 2.7-1.5 3.9-11 18-18.2 36.9-15.3 58.6 1.3 9.5 5.2 17.6 12.6 23.7 9.9 8 21.6 9.6 33.8 9.1 2.3-.1 4.7-.5 6.9-1.2 2.7-.8 3.6-4.2 1.6-5.5-1.1-.7-3-.7-4.5-.5-6.8 1.1-13.5.6-20.1-.8-10.4-2.2-18-7.8-21.6-18.1-3.5-9.9-3.7-19.9-1.3-30.1 1.9-7.9 4.8-15.4 8.9-22.4.2 4.4.5 8.8.2 13.2-.5 7.5 1.2 14.3 5.1 20.7 5.5 9 13.5 15.2 22.7 19.7 21.5 10.5 44 12.7 67.1 6.7 14.9-3.8 28.3-10.3 38.1-22.7 4.3-5.4 7.6-11.5 7.6-18.4-.1-14.3 1.4-29-1.1-44.1z"/><path id="XMLID_96_" d="M363.2 334.7c2.5 15.1 1.1 29.8 1.2 44.4 0 6.9-3.3 13-7.6 18.4-9.8 12.4-23.2 18.9-38.1 22.7-23.1 5.9-45.6 3.8-67.1-6.7-9.3-4.5-17.2-10.7-22.7-19.7-3.9-6.4-5.5-13.2-5.1-20.7.3-4.4.1-8.7-.2-13.2-4 7.1-7 14.5-8.9 22.4-2.4 10.1-2.3 20.2 1.3 30.1 3.7 10.3 11.2 16 21.6 18.1 6.6 1.4 13.4 1.8 20.1.8 1.5-.2 3.4-.3 4.5.5 2.1 1.3 1.1 4.6-1.6 5.5-2.2.7-4.6 1.1-6.9 1.2-12.2.4-23.9-1.2-33.8-9.1-7.5-6.1-11.4-14.1-12.6-23.7-2.9-21.7 4.3-40.6 15.3-58.6.7-1.2 1-2.6 1.5-3.9l-1.2-.6c-3.2 5.3-6.7 10.4-9.6 15.8-5.3 10-8.8 20.8-9.9 32-.7 7-.1 14.3 1.3 21.2 3 14.4 13.4 21.9 26.7 26 8.2 2.5 16.7 3.4 25.2 3.1 1.3 0 2.7-.4 3.8.1 1.1.5 2.4 1.8 2.6 3 .2.9-1 2.4-1.9 3.1-.9.6-2.2.7-3.4.7-12.2 0-24.3-.9-35.6-6.1-14.9-6.9-23.4-18.8-25.2-34.9-3-25.7 5.8-48.1 21.3-68.2 3-3.8 7-6.8 10.5-10.2 1.5-1.5 2.6-3.4 4-5 10.4-12.3 24.1-18.9 39.4-22.2 20.2-4.4 40-3.3 59.3 4.7 9.3 3.9 17.2 9.7 24.1 16.9.8.8 1.8 1.5 2.8 2 8.4 4.1 16.4 8.9 22.9 15.7 9.5 9.9 14.3 21.6 12.4 35.7-1.3 9.6-5.1 18.1-10.3 26.1-13.7 20.6-31.2 36.5-55.6 43-10.4 2.8-21 3.2-31.7 1-.7-.1-1.3-.3-2-.5-1.9-.8-2.8-2.2-2.2-4.2.6-2 2.2-2.5 4.2-2.2 4.4.8 8.8 2.1 13.3 2.1 12.1.1 23.3-3.7 33.7-9.7 17.7-10.3 31.5-24.3 40.1-43.1 5.2-11.4 6.6-23 .2-34.4-4.8-8.5-12.1-14.1-20.1-19.4zM294.5 389c7.5-1.1 15.2-1.6 22.6-3.3 13.3-2.9 25.1-8.7 33.8-19.7 8.9-11.1 9.7-24.9 1.7-36.2-5.7-8.1-13.4-13.9-22.5-17.8-17.9-7.7-36.4-8.7-55.2-4.9-13.6 2.7-26.1 7.8-35.8 18.1-7.2 7.7-10.3 16.7-8.2 27.2 2 10.2 8.1 17.4 16.5 22.9 14.1 9.6 30.1 12.9 47.1 13.7zm56.4-12.9c-16.4 13.9-35.9 19-56.8 19s-40.3-5.2-56.7-19.1c5 7 11.7 11.8 19.4 15.2 19.4 8.7 39.5 9.8 60 5.1 13.3-3.1 25.3-8.8 34.1-20.2zm-5.1 14.8c-34.1 20.4-69.1 19.8-102.9.3 21.3 22.6 78.9 23.7 102.9-.3zm-5.5 12.7c-31 15.1-61.3 15-91.6.4 22.2 18 70 16 91.6-.4z"/><path id="XMLID_93_" class="st2" d="M294.5 389c-16.9-.8-33-4.1-47.2-13.5-8.4-5.5-14.5-12.8-16.5-22.9-2-10.5 1-19.6 8.2-27.2 9.7-10.3 22.2-15.4 35.8-18.1 18.8-3.8 37.4-2.8 55.2 4.9 9.1 3.9 16.8 9.7 22.5 17.8 8 11.2 7.2 25-1.7 36.2-8.7 11-20.5 16.7-33.8 19.7-7.3 1.5-15 2.1-22.5 3.1zm1.6-1.9c3.5-.4 9.3-.8 14.9-2 12.1-2.4 23.1-7.3 31.8-16.3 11.5-11.7 12.8-27.4 3.3-40.2-5.1-6.8-11.8-11.6-19.5-15.1-16-7.3-32.8-8.6-49.9-5-13.3 2.8-25.2 8.4-34 19.3-4.7 5.8-7.4 12.5-7 20 .5 10.1 5.5 18 13.1 24.3 13.1 10.7 28.6 14.4 47.3 15z"/><path id="XMLID_92_" class="st2" d="M350.9 376.1c-8.7 11.3-20.8 17.1-34.2 20.2-20.5 4.7-40.6 3.6-60-5.1-7.6-3.4-14.4-8.1-19.4-15.2 16.4 13.9 35.8 19.1 56.7 19.1 21 0 40.5-5.1 56.9-19z"/><path id="XMLID_91_" class="st2" d="M345.8 390.9c-24 24-81.6 23-102.9.3 33.8 19.5 68.8 20.1 102.9-.3z"/><path id="XMLID_90_" class="st2" d="M340.3 403.6c-21.6 16.4-69.3 18.4-91.6.4 30.3 14.6 60.5 14.7 91.6-.4z"/><path id="XMLID_87_" d="M296.1 387.1c-18.7-.6-34.2-4.3-47.2-15.1-7.6-6.3-12.6-14.2-13.1-24.3-.4-7.5 2.4-14.2 7-20 8.8-10.9 20.7-16.5 34-19.3 17.1-3.6 33.8-2.3 49.9 5 7.7 3.5 14.4 8.3 19.5 15.1 9.5 12.8 8.2 28.5-3.3 40.2-8.8 9-19.7 13.9-31.8 16.3-5.7 1.3-11.5 1.7-15 2.1zm-2.1-6c4.9-.6 10-.8 14.8-1.7 12-2.3 22.8-6.9 31.1-16.3 7.9-9 8.5-20.8 1.6-30.4-4.3-6-10-10.1-16.6-13.2-12.7-6-26.1-7.6-40-6-11.3 1.3-21.8 4.7-30.8 11.7-6.9 5.3-11.8 12-12.1 21.1-.3 10 5 17.1 12.5 22.7 11.7 8.6 25.2 11.6 39.5 12.1z"/><path id="XMLID_84_" class="st2" d="M294 381.1c-14.4-.4-27.8-3.5-39.5-12.2-7.5-5.6-12.8-12.7-12.5-22.7.2-9.2 5.2-15.8 12.1-21.1 9-7 19.5-10.4 30.8-11.7 13.9-1.6 27.3.1 40 6 6.6 3.1 12.3 7.2 16.6 13.2 6.9 9.7 6.3 21.5-1.6 30.4-8.3 9.4-19.1 14-31.1 16.3-4.8 1-9.8 1.2-14.8 1.8zm.3-66.5c-12 0-23.2 2.7-33.2 9.5-10.1 6.9-14.7 16.4-13.6 28.6.7 7.5 5.3 12.5 11.3 16.2 13.1 8 27.4 11.7 42.8 9.7 9.9-1.3 19.7-3.3 28-9.2 5-3.6 9.5-7.9 10.7-14.2 2.2-11.2-.7-20.9-9.6-28.4-10.5-8.9-23-12.1-36.4-12.2z"/><path id="XMLID_78_" d="M294.3 314.6c13.5.1 25.9 3.3 36.4 12.2 8.8 7.5 11.7 17.2 9.6 28.4-1.2 6.3-5.7 10.6-10.7 14.2-8.4 5.9-18.1 7.9-28 9.2-15.4 2-29.7-1.6-42.8-9.7-6-3.7-10.6-8.8-11.3-16.2-1.1-12.2 3.5-21.7 13.6-28.6 10-6.9 21.2-9.6 33.2-9.5zm3.6 57.2c5.6-.1 14.7-1 23-5.5 2.5-1.4 6.1-3.7 6.2-5.7.1-3.3-4.1-4.8-7-5.7-6.2-1.7-12.4-3.4-18.8-4-10.8-1.1-21.5 0-31.6 4.4-2.8 1.2-6.5 2.3-6.4 6 0 3.5 3.5 4.6 6.2 5.9 7.8 3.5 16.2 4.6 28.4 4.6zm-44.1-22.4c4.6-5.1 9.8-8.4 15.9-10 5.8-1.5 11.6-3.1 17.5-3.8 10.3-1.1 20.5-.5 30.4 2.9 5.2 1.8 10 4.3 14.7 6.4-2.1-3.4-5.9-5.8-9.9-7.8-11.1-5.4-22.9-6.8-35.1-5.7-8.8.7-17.3 2.8-24.8 7.6-3.8 2.4-7.1 5.3-8.7 10.4zm73.8-17c-16.5-16.4-53-14.8-66.4-.2 21.9-9.8 43.9-9.8 66.4.2zm-69.6 24c3.4-4.4 7.8-6.9 12.8-8.2 4.7-1.3 9.4-2.4 14.3-3 10.4-1.3 20.9-1.1 31 1.9 4.9 1.5 9.5 3.8 13.9 5.6-1.5-2.9-10.4-8.4-15.3-9.3-10.7-1.9-21.4-3.1-32.2-1.2-7.1 1.2-13.9 3-19.9 7.2-2.3 1.7-4.7 3.4-4.6 7z"/><path id="XMLID_77_" class="st2" d="M297.9 371.8c-12.2 0-20.6-1.1-28.4-4.7-2.7-1.2-6.2-2.4-6.2-5.9 0-3.7 3.6-4.8 6.4-6 10.1-4.4 20.8-5.5 31.6-4.4 6.3.6 12.6 2.3 18.8 4 3 .8 7.1 2.3 7 5.7-.1 2-3.7 4.4-6.2 5.7-8.3 4.6-17.4 5.5-23 5.6z"/><path id="XMLID_76_" class="st2" d="M253.8 349.4c1.5-5.1 4.8-8 8.7-10.4 7.6-4.8 16-6.9 24.8-7.6 12.1-1 24 .3 35.1 5.7 4 2 7.8 4.4 9.9 7.8-4.6-2-9.5-4.6-14.7-6.4-9.8-3.4-20.1-4-30.4-2.9-5.9.6-11.7 2.3-17.5 3.8-6.1 1.6-11.3 4.9-15.9 10z"/><path id="XMLID_75_" class="st2" d="M327.6 332.4c-22.5-10-44.4-10-66.4-.2 13.3-14.6 49.8-16.2 66.4.2z"/><path id="XMLID_74_" class="st2" d="M258 356.4c-.2-3.7 2.3-5.4 4.5-7 5.9-4.2 12.8-6 19.9-7.2 10.8-1.9 21.5-.7 32.2 1.2 4.9.9 13.8 6.4 15.3 9.3-4.4-1.8-9-4.1-13.9-5.6-10.1-3.1-20.6-3.3-31-1.9-4.8.6-9.6 1.7-14.3 3-4.8 1.4-9.3 3.8-12.7 8.2z"/></g></svg>