<svg version="1.1" id="Layer_1" xmlns="http://www.w3.org/2000/svg" x="0" y="0" viewBox="250 310 90 90" style="enable-background:new 0 0 595.3 841.9" xml:space="preserve"><style>.st2{fill:#fff}</style><g id="XMLID_810_"><path id="XMLID_811_" d="M143.7 1119c-1.5-.7-8.8-4.3-10.1-4.8-1.4-.5-2.4-.7-3.3.7-1 1.5-3.9 4.8-4.7 5.7-.9 1-1.7 1.1-3.2.4-1.5-.7-6.3-2.3-11.9-7.3-4.4-3.9-7.4-8.7-8.2-10.2-.8-1.5-.1-2.3.7-3 .7-.7 1.5-1.7 2.2-2.6.2-.3.4-.5.5-.7.3-.5.6-1 .9-1.8.5-1 .3-1.8-.1-2.6-.4-.7-3.3-8-4.6-10.9-1.2-2.9-2.5-2.4-3.3-2.4-.9 0-1.8-.1-2.8-.1-1 0-2.6.4-4 1.8-1.4 1.5-5.2 5-5.2 12.3 0 1.7.3 3.4.8 5 1.5 5.2 4.7 9.5 5.3 10.2.7 1 10.3 16.3 25.3 22.2 15.1 5.9 15.1 3.9 17.8 3.7 2.7-.2 8.8-3.5 10-7 1.2-3.4 1.2-6.4.9-7-.6-.5-1.6-.8-3-1.6z" style="fill-rule:evenodd;clip-rule:evenodd;fill:#33403f"/></g><path d="M118 1043.6c-35.2 0-63.7 28.5-63.7 63.7S82.8 1171 118 1171s63.7-28.5 63.7-63.7-28.5-63.7-63.7-63.7zm0 117c-30 0-54.3-23.9-54.3-53.4s24.3-53.4 54.3-53.4c30 0 54.3 23.9 54.3 53.4.1 29.5-24.3 53.4-54.3 53.4z" style="fill:#33403f"/><g id="XMLID_1_"><path id="XMLID_36_" class="st2" d="M345.6 398.2h-95.2v-88.1h95.2v88.1zm-56.9-.5h17.9v-5.6H300v-66.7c0-.8.2-1.7.4-2.5 2-5.7 6.8-7.4 12.7-6.5v2.3h6.7c.5 2.8 2.3 4.4 4.8 5.3 1.9.7 3.8.8 5.7.4 2.6-.6 4.9-1.6 5.9-4.4.2-.6.7-1.1 1-1.6.1.1.2.1.3.2v-3.8c0-2.7-1.5-4.2-4.2-4.2H317c-.8 0-1.7.1-2.2.5-.9.7-1.8.8-2.8.7-2.5 0-5-.1-7.4.8-2.9 1.1-5.2 3-7 5.6-2.2-3.1-5-5.4-8.7-6.1-2.1-.4-4.3-.3-6.5-.4-.4 0-1 0-1.2-.2-1.1-1.1-2.4-1.1-3.8-1.1h-16c-2 0-3.7 1.4-3.8 3.3-.1 1.6 0 3.2 0 4.5.5.5 1.1.8 1.2 1.3.5 1.7 1.5 2.9 3.1 3.8 2 1.1 4.2 1.4 6.5 1.2 3.5-.3 6.2-2.3 7.1-5.8h6.7v-2.4h2.9c5.7-.3 10.3 4.1 10.3 10.3-.1 21.4 0 42.8 0 64.2v1.4h-6.8v4c.1.4.1.9.1 1.5z"/><path id="XMLID_32_" d="M288.7 397.7v-5.5h6.8v-65.6c0-6.1-4.5-10.6-10.3-10.3h-2.9v2.4h-6.7c-.9 3.5-3.6 5.6-7.1 5.8-2.3.2-4.5-.1-6.5-1.2-1.5-.9-2.6-2.1-3.1-3.8-.1-.4-.6-.7-1.2-1.3 0-1.3-.1-2.9 0-4.5.1-1.9 1.7-3.3 3.8-3.3h16c1.4 0 2.7 0 3.8 1.1.3.2.8.2 1.2.2 2.2.1 4.4 0 6.5.4 3.7.7 6.5 2.9 8.7 6.1 1.8-2.6 4.1-4.5 7-5.6 2.4-.9 4.9-.9 7.4-.8 1 0 1.9 0 2.8-.7.5-.4 1.5-.5 2.2-.5h16.3c2.7 0 4.2 1.5 4.2 4.2v3.8c-.1-.1-.2-.1-.3-.2-.4.5-.8 1-1 1.6-1 2.8-3.3 3.9-5.9 4.4-1.9.4-3.8.3-5.7-.4-2.5-.9-4.3-2.4-4.8-5.3h-6.7v-2.3c-6-.9-10.7.8-12.7 6.5-.3.8-.4 1.6-.4 2.5v66.7h6.6v5.6h-18zM261 318.8c-.2 2.1 3.4 4 6.7 3.8 2.8-.2 6-2 5.6-3.8H261zm73.4 0h-12.3c.1 2.1 2.6 3.7 5.9 3.8 3.4.1 6.2-1.5 6.4-3.8z"/><path id="XMLID_31_" class="st2" d="M261 318.8h12.3c.5 1.7-2.7 3.6-5.6 3.8-3.3.2-6.9-1.7-6.7-3.8z"/><path id="XMLID_30_" class="st2" d="M334.4 318.8c-.3 2.3-3.1 3.9-6.4 3.8-3.3-.1-5.8-1.7-5.9-3.8h12.3z"/></g></svg>