<?xml version="1.0" encoding="UTF-8"?>
<!DOCTYPE svg PUBLIC "-//W3C//DTD SVG 1.1//EN" "http://www.w3.org/Graphics/SVG/1.1/DTD/svg11.dtd">
<svg xmlns="http://www.w3.org/2000/svg" version="1.1" width="236px" height="129px" style="shape-rendering:geometricPrecision; text-rendering:geometricPrecision; image-rendering:optimizeQuality; fill-rule:evenodd; clip-rule:evenodd" xmlns:xlink="http://www.w3.org/1999/xlink">
<g><path style="opacity:0.944" fill="#323f3e" d="M 161.5,-0.5 C 167.5,-0.5 173.5,-0.5 179.5,-0.5C 218.619,9.01454 236.786,34.0145 234,74.5C 226.384,108.119 205.384,125.786 171,127.5C 149.863,127.514 132.697,119.347 119.5,103C 128.439,100.748 136.106,102.748 142.5,109C 171.93,123.35 196.43,117.516 216,91.5C 230.355,61.0815 223.855,36.2482 196.5,17C 172.832,5.86954 151.498,9.20287 132.5,27C 127.798,27.8283 123.131,27.6616 118.5,26.5C 129.217,11.6465 143.55,2.64646 161.5,-0.5 Z"/></g>
<g><path style="opacity:0.987" fill="#f8c835" d="M 164.5,18.5 C 199.63,18.7954 216.463,36.462 215,71.5C 207.342,98.4689 189.509,110.302 161.5,107C 142.898,102.065 131.398,90.2316 127,71.5C 124.636,43.066 137.136,25.3993 164.5,18.5 Z"/></g>
<g><path style="opacity:0.984" fill="#333f3f" d="M -0.5,32.5 C 5.16667,32.5 10.8333,32.5 16.5,32.5C 16.5,38.1667 16.5,43.8333 16.5,49.5C 10.8333,49.5 5.16667,49.5 -0.5,49.5C -0.5,43.8333 -0.5,38.1667 -0.5,32.5 Z"/></g>
<g><path style="opacity:0.999" fill="#f7c423" d="M 22.5,32.5 C 36.1667,32.5 49.8333,32.5 63.5,32.5C 63.5,38.5 63.5,44.5 63.5,50.5C 49.8333,50.5 36.1667,50.5 22.5,50.5C 22.5,44.5 22.5,38.5 22.5,32.5 Z"/></g>
<g><path style="opacity:0.997" fill="#364242" d="M 128.5,95.5 C 122.355,96.4902 116.022,96.8235 109.5,96.5C 107.983,96.4894 106.816,95.8228 106,94.5C 101.667,88.1667 97.3333,81.8333 93,75.5C 91.2111,73.771 89.0444,73.1043 86.5,73.5C 86.5,81.5 86.5,89.5 86.5,97.5C 80.5746,97.8082 74.7412,97.4749 69,96.5C 68.5,75.1693 68.3334,53.8359 68.5,32.5C 74.5,32.5 80.5,32.5 86.5,32.5C 86.5,40.1667 86.5,47.8333 86.5,55.5C 89.0444,55.8957 91.2111,55.229 93,53.5C 97.7104,46.5789 102.544,39.7456 107.5,33C 114.833,32.3333 122.167,32.3333 129.5,33C 122.044,43.4126 114.71,53.9126 107.5,64.5C 114.768,74.7179 121.768,85.0512 128.5,95.5 Z"/></g>
<g><path style="opacity:1" fill="#fefcf7" d="M 148.5,48.5 C 152.182,48.3347 155.848,48.5014 159.5,49C 166.619,51.93 167.286,55.93 161.5,61C 168.059,65.2451 168.059,69.5784 161.5,74C 157.179,74.499 152.846,74.6657 148.5,74.5C 148.5,65.8333 148.5,57.1667 148.5,48.5 Z"/></g>
<g><path style="opacity:1" fill="#fefffe" d="M 172.5,48.5 C 173.5,48.5 174.5,48.5 175.5,48.5C 175.5,57.1667 175.5,65.8333 175.5,74.5C 174.5,74.5 173.5,74.5 172.5,74.5C 172.5,65.8333 172.5,57.1667 172.5,48.5 Z"/></g>
<g><path style="opacity:1" fill="#fffdf8" d="M 180.5,48.5 C 187.167,48.5 193.833,48.5 200.5,48.5C 200.657,49.8734 200.49,51.2068 200,52.5C 194.952,58.7592 189.786,64.9259 184.5,71C 190.157,71.4994 195.824,71.6661 201.5,71.5C 201.5,72.5 201.5,73.5 201.5,74.5C 194.5,74.5 187.5,74.5 180.5,74.5C 180.343,73.1266 180.51,71.7932 181,70.5C 186.048,64.2408 191.214,58.0741 196.5,52C 191.177,51.5006 185.844,51.334 180.5,51.5C 180.5,50.5 180.5,49.5 180.5,48.5 Z"/></g>
<g><path style="opacity:0.439" fill="#606046" d="M 16.5,32.5 C 17.4896,38.31 17.8229,44.31 17.5,50.5C 11.5,50.5 5.5,50.5 -0.5,50.5C -0.5,50.1667 -0.5,49.8333 -0.5,49.5C 5.16667,49.5 10.8333,49.5 16.5,49.5C 16.5,43.8333 16.5,38.1667 16.5,32.5 Z"/></g>
<g><path style="opacity:1" fill="#f8c939" d="M 151.5,51.5 C 154.187,51.3359 156.854,51.5026 159.5,52C 162.167,54.3333 162.167,56.6667 159.5,59C 156.854,59.4974 154.187,59.6641 151.5,59.5C 151.5,56.8333 151.5,54.1667 151.5,51.5 Z"/></g>
<g><path style="opacity:1" fill="#37413f" d="M -0.5,55.5 C 5.5,55.5 11.5,55.5 17.5,55.5C 17.5,69.1667 17.5,82.8333 17.5,96.5C 11.5,96.5 5.5,96.5 -0.5,96.5C -0.5,82.8333 -0.5,69.1667 -0.5,55.5 Z"/></g>
<g><path style="opacity:1" fill="#333f3f" d="M 22.5,56.5 C 35.8333,56.5 49.1667,56.5 62.5,56.5C 62.5,61.8333 62.5,67.1667 62.5,72.5C 54.9809,72.175 47.6476,72.5084 40.5,73.5C 40.5,75.1667 40.5,76.8333 40.5,78.5C 47.6476,79.4916 54.9809,79.825 62.5,79.5C 62.5,85.1667 62.5,90.8333 62.5,96.5C 49.1667,96.5 35.8333,96.5 22.5,96.5C 22.5,83.1667 22.5,69.8333 22.5,56.5 Z"/></g>
<g><path style="opacity:1" fill="#f8c836" d="M 151.5,62.5 C 154.518,62.3354 157.518,62.502 160.5,63C 163.167,65.6667 163.167,68.3333 160.5,71C 157.518,71.498 154.518,71.6646 151.5,71.5C 151.5,68.5 151.5,65.5 151.5,62.5 Z"/></g>
<g><path style="opacity:0.705" fill="#505341" d="M 22.5,56.5 C 35.9898,55.5043 49.6565,55.171 63.5,55.5C 63.5,61.5 63.5,67.5 63.5,73.5C 55.8333,73.5 48.1667,73.5 40.5,73.5C 47.6476,72.5084 54.9809,72.175 62.5,72.5C 62.5,67.1667 62.5,61.8333 62.5,56.5C 49.1667,56.5 35.8333,56.5 22.5,56.5 Z"/></g>
<g><path style="opacity:0.251" fill="#78755e" d="M 40.5,78.5 C 48.1667,78.5 55.8333,78.5 63.5,78.5C 63.5,84.8333 63.5,91.1667 63.5,97.5C 49.6565,97.829 35.9898,97.4957 22.5,96.5C 35.8333,96.5 49.1667,96.5 62.5,96.5C 62.5,90.8333 62.5,85.1667 62.5,79.5C 54.9809,79.825 47.6476,79.4916 40.5,78.5 Z"/></g>
<g><path style="opacity:0.059" fill="#dedfde" d="M 128.5,95.5 C 129.043,95.56 129.376,95.8933 129.5,96.5C 122.678,97.8181 116.011,97.8181 109.5,96.5C 116.022,96.8235 122.355,96.4902 128.5,95.5 Z"/></g>
</svg>
