<svg version="1.1" id="Layer_1" xmlns="http://www.w3.org/2000/svg" x="0" y="0" viewBox="50 150 480 240" style="enable-background:new 0 0 595.3 841.9" xml:space="preserve"><style>.st2{fill:#fff}</style><g id="XMLID_810_"><path id="XMLID_811_" d="M143.7 1119c-1.5-.7-8.8-4.3-10.1-4.8-1.4-.5-2.4-.7-3.3.7-1 1.5-3.9 4.8-4.7 5.7-.9 1-1.7 1.1-3.2.4-1.5-.7-6.3-2.3-11.9-7.3-4.4-3.9-7.4-8.7-8.2-10.2-.8-1.5-.1-2.3.7-3 .7-.7 1.5-1.7 2.2-2.6.2-.3.4-.5.5-.7.3-.5.6-1 .9-1.8.5-1 .3-1.8-.1-2.6-.4-.7-3.3-8-4.6-10.9-1.2-2.9-2.5-2.4-3.3-2.4-.9 0-1.8-.1-2.8-.1-1 0-2.6.4-4 1.8-1.4 1.5-5.2 5-5.2 12.3 0 1.7.3 3.4.8 5 1.5 5.2 4.7 9.5 5.3 10.2.7 1 10.3 16.3 25.3 22.2 15.1 5.9 15.1 3.9 17.8 3.7 2.7-.2 8.8-3.5 10-7 1.2-3.4 1.2-6.4.9-7-.6-.5-1.6-.8-3-1.6z" style="fill-rule:evenodd;clip-rule:evenodd;fill:#33403f"/></g><path d="M118 1043.6c-35.2 0-63.7 28.5-63.7 63.7S82.8 1171 118 1171s63.7-28.5 63.7-63.7-28.5-63.7-63.7-63.7zm0 117c-30 0-54.3-23.9-54.3-53.4s24.3-53.4 54.3-53.4c30 0 54.3 23.9 54.3 53.4.1 29.5-24.3 53.4-54.3 53.4z" style="fill:#33403f"/><g id="XMLID_1_"><g id="XMLID_39_"><path id="XMLID_63_" d="M156.4 373.3V177c.2-.4.5-.7.7-1.1.6-1.5 1.1-3.1 1.9-4.5 4.1-7 10.7-10.9 18-13.8 3.2-1.3 6.6-2.2 10-3.1 3.3-.8 6.7-1.5 10.1-2 6.5-.9 13.1-1 19.6-1H364c4.8 0 9.6 0 14.4.2 3.1.1 6.1.4 9.2.9 3.2.5 6.4 1.2 9.6 2 2.8.7 5.7 1.4 8.4 2.5 3 1.2 6 2.7 8.8 4.3 3.7 2.1 7 4.9 9.4 8.6 1.3 2 2.4 4.3 3.1 6.5.5 1.6.5 3.5.5 5.2v186.8c0 5.4-1.7 10-5.6 13.8-2.5 2.4-5.5 3.9-8.8 4.6-1.9.4-3.8.3-5.7.3H174.6c-2.3 0-4.6-.2-6.8-1-4.7-1.9-8.2-5.1-10.2-9.9l-1.2-3zm259.2-98.1v-93.1c0-3.1-1.1-5.5-3.2-7.5-4.8-4.5-10.7-6.6-16.9-8.3-2.8-.7-5.6-1.3-8.4-1.6-4.2-.6-8.4-1.3-12.6-1.3-45.6-.1-91.1-.1-136.7-.1-12.3 0-24.6-.7-36.8.7-3.7.4-7.4.9-11 1.8-3.6.9-7.1 2.1-10.5 3.4-3.3 1.3-6.4 3.2-8.9 5.9-1.4 1.5-2.6 3.3-2.6 5.5v188.9c.2 3.2 2.5 5.9 6 5.8h16c1.6 0 1.7-.1 1.7-1.7v-33.4c0-3.9.7-7.6 2.6-11.1 4.6-8.4 11.9-12.9 21.4-12.9 50.7-.1 101.4-.1 152 0 2.7 0 5.4.5 8 1.3 5.7 1.7 10 5.4 13.1 10.4 2.4 4 3.3 8.3 3.3 12.9v32.8c0 1.4.2 1.6 1.6 1.6 5.4 0 10.9.1 16.3-.1 1.2 0 2.6-.7 3.6-1.5 1.8-1.2 2-3.2 2-5.2v-93.2zm-123.7 53c-25.1 0-50.2 0-75.4.1-2.1 0-4.2.5-6.2 1.2-4.2 1.6-6.8 5.7-6.9 9.9-.2 4.2 0 8.4 0 12.6v22.1c0 .8 0 1.5 1.1 1.5h10c.8 0 1.1-.4 1-1.1-.1-.8-.2-1.6-.2-2.4v-16.3c0-3.2.6-6.1 2.4-8.8 2.7-4.1 6.6-6.2 11.4-6.7 2.4-.3 4.6.4 6.7 1.3 5.2 2.2 8.8 7.6 8.9 13.3.1 5.4 0 10.8 0 16.2 0 1.1 0 2.2-.1 3.3-.1.9.2 1.3 1 1.3h10.1c.8 0 1.1-.4 1.1-1.2-.1-.6-.2-1.3-.2-1.9v-17.5c0-2.3.5-4.6 1.6-6.7 3.2-6.2 10.8-9.9 18-7.2 6 2.3 9.8 7.5 9.9 14 .1 5.8 0 11.7 0 17.5 0 .6 0 1.1-.2 1.7-.3 1 .1 1.4 1.1 1.4h10.1c.9 0 1.1-.4 1-1.2-.1-.7-.2-1.4-.2-2.1 0-5.7-.1-11.4 0-17 0-1.8.4-3.7 1-5.4 2.5-7.2 10.9-11.7 18.6-8.8 6.1 2.3 9.7 7.7 9.9 13.9.1 5.8 0 11.7 0 17.5 0 .6-.1 1.2-.2 1.8-.3.9 0 1.3.9 1.3h10.3c.9 0 1.1-.5.9-1.3-.1-.8-.3-1.6-.3-2.4 0-5.4-.1-10.9 0-16.3 0-1.6.1-3.3.6-4.9 1.8-5.1 5.2-8.6 10.6-10.1 4.6-1.3 8.7-.1 12.4 2.6 4.1 3 5.9 7.3 5.9 12.4V372c0 .8-.1 1.5-.2 2.3-.2 1.3-.1 1.5 1.3 1.5h9.2c1 0 1.4-.3 1.4-1.4v-33.6c0-2-.2-4.1-1.3-5.9-2.6-4.5-6.6-6.4-11.6-6.4-25.1-.3-50.2-.3-75.4-.3zM227 363.7v8.8c0 1.6 1.4 2.9 2.9 3 1.7 0 3-1.3 3-3.3V355c0-1.7-1.5-3.2-3-3.1-1.3.1-3 1.2-2.9 3.3.1 2.8 0 5.7 0 8.5zm41.3 0v9c0 1.4 1.3 2.7 2.7 2.7 1.9 0 3.1-1.3 3.1-3.5V355c0-1.8-1.4-3.3-3-3.3s-2.9 1.4-2.9 3.3c.1 3 .1 5.9.1 8.7zm41.4-.2s-.1 0 0 0v9.2c0 1.5 1.3 2.7 2.8 2.7 1.9 0 3-1.3 3-3.7v-16.2c0-.5-.1-1-.2-1.5-.3-1.3-1.7-2.3-2.9-2.2-1.5.1-2.7 1.3-2.7 2.8-.1 3 0 6 0 8.9zm41.1.1c.1 0 .1 0 0 0v4.2c0 1.7 0 3.4.1 5.2 0 1.3.9 2 1.9 2.4.9.4 1.9.2 2.8-.6 1.1-.9 1.1-2.1 1.1-3.3v-15.7c0-.4-.1-.9-.1-1.3-.1-1.4-1-2.1-2.2-2.5-1.1-.4-2.1.1-2.7.9-.5.7-.8 1.7-.9 2.6v8.1z"/><path id="XMLID_62_" class="st2" d="M156.4 373.3c.4 1 .8 2 1.2 2.9 2 4.7 5.5 8 10.2 9.9 2.2.9 4.5 1 6.8 1h232.7c1.9 0 3.9.1 5.7-.3 3.3-.7 6.3-2.1 8.8-4.6 3.9-3.8 5.6-8.4 5.6-13.8V181.6c0-1.7 0-3.6-.5-5.2-.8-2.3-1.8-4.5-3.1-6.5-2.3-3.7-5.6-6.4-9.4-8.6-2.8-1.6-5.8-3.1-8.8-4.3-2.7-1.1-5.6-1.8-8.4-2.5-3.2-.8-6.4-1.5-9.6-2-3-.5-6.1-.8-9.2-.9-4.8-.2-9.6-.2-14.4-.2H216.7c-6.6 0-13.1.1-19.6 1-3.4.5-6.8 1.1-10.1 2-3.4.9-6.8 1.8-10 3.1-7.3 2.9-13.8 6.8-18 13.8-.8 1.4-1.3 3-1.9 4.5-.2.4-.4.7-.7 1.1v-26.2h271.4v237.1H156.4v-14.5z"/><path id="XMLID_57_" class="st2" d="M415.6 275.2v93.5c0 2-.2 4-2 5.2-1.1.7-2.4 1.4-3.6 1.5-5.4.2-10.9.1-16.3.1-1.4 0-1.6-.2-1.6-1.6v-32.8c0-4.6-.9-9-3.3-12.9-3.1-5.1-7.3-8.8-13.1-10.4-2.6-.7-5.3-1.3-8-1.3-50.7-.1-101.4-.1-152 0-9.6 0-16.8 4.4-21.4 12.9-1.9 3.4-2.6 7.1-2.6 11.1v33.4c0 1.6-.1 1.7-1.7 1.7h-16c-3.5 0-5.9-2.6-6-5.8V180.9c0-2.2 1.2-4 2.6-5.5 2.5-2.7 5.6-4.6 8.9-5.9 3.4-1.4 6.9-2.6 10.5-3.4 3.6-.9 7.3-1.4 11-1.8 12.2-1.5 24.5-.7 36.8-.7 45.6-.1 91.1-.1 136.7.1 4.2 0 8.4.7 12.6 1.3 2.8.4 5.7.9 8.4 1.6 6.2 1.6 12.1 3.8 16.9 8.3 2.2 2 3.2 4.4 3.2 7.5v92.8zm-156.3-82.3h-49.9c-1 0-2.1.2-3 .7-2.1 1.2-2.9 3.1-2.9 5.5v40.3c0 1 .1 2 .5 2.9 1.2 2.6 3.5 3.6 6.2 3.6h99c3.9-.4 6.2-2.5 6.2-6.4.1-13.4.1-26.9 0-40.3 0-2.6-1.1-4.7-3.6-5.8-1-.4-2.2-.4-3.3-.4-16.3-.1-32.7-.1-49.2-.1zm106.3 23.4c-18 0-32.4 14.5-32.5 32.2-.1 18 14.4 32.5 32.2 32.6 18.2.1 32.6-14.5 32.6-32.3.1-17.9-14.3-32.4-32.3-32.5zm-91.4 61.9c-.1 4.9 4 8.9 8.8 8.8 5.2-.1 8.8-3.9 8.8-8.8 0-5.1-3.7-8.6-8.8-8.9-4.7-.2-8.8 4.1-8.8 8.9z"/><path id="XMLID_56_" class="st2" d="M291.9 328.2h75.5c5.1 0 9.1 1.9 11.6 6.4 1 1.8 1.2 3.8 1.3 5.9v33.6c0 1.1-.4 1.4-1.4 1.4h-9.2c-1.3 0-1.5-.2-1.3-1.5.1-.7.2-1.5.2-2.3v-16.2c0-5.1-1.9-9.3-5.9-12.4-3.7-2.8-7.8-3.9-12.4-2.6-5.4 1.5-8.8 5-10.6 10.1-.5 1.5-.6 3.2-.6 4.9-.1 5.4 0 10.9 0 16.3 0 .8.1 1.6.3 2.4.1.8-.1 1.3-.9 1.3h-10.3c-.9 0-1.2-.4-.9-1.3.2-.6.2-1.2.2-1.8 0-5.8.1-11.7 0-17.5-.1-6.3-3.8-11.6-9.9-13.9-7.7-2.9-16.1 1.6-18.6 8.8-.6 1.7-.9 3.6-1 5.4-.1 5.7-.1 11.4 0 17 0 .7.1 1.4.2 2.1.1.8-.1 1.2-1 1.2h-10.1c-1 0-1.4-.4-1.1-1.4.2-.5.2-1.1.2-1.7 0-5.8.1-11.7 0-17.5-.1-6.5-3.9-11.7-9.9-14-7.1-2.7-14.8 1.1-18 7.2-1.1 2.1-1.6 4.3-1.6 6.7v17.5c0 .6.1 1.3.2 1.9.1.8-.2 1.2-1.1 1.2h-10.1c-.9 0-1.2-.3-1-1.3.2-1.1.1-2.2.1-3.3v-16.2c-.1-5.7-3.7-11-8.9-13.3-2.2-.9-4.4-1.6-6.7-1.3-4.8.5-8.7 2.6-11.4 6.7-1.8 2.7-2.4 5.6-2.4 8.8.1 5.4 0 10.9 0 16.3 0 .8.1 1.6.2 2.4.1.7-.2 1.1-1 1.1h-10c-1.1 0-1.1-.7-1.1-1.5v-22.1c0-4.2-.1-8.4 0-12.6.2-4.2 2.7-8.3 6.9-9.9 1.9-.7 4.1-1.2 6.2-1.2 25.1.2 50.2.2 75.3.2z"/><path id="XMLID_55_" class="st2" d="M227 363.7c0-2.9.1-5.8 0-8.6-.1-2.1 1.6-3.2 2.9-3.3 1.5-.1 3 1.4 3 3.1.1 2.1 0 4.2 0 6.4v10.8c0 2-1.3 3.4-3 3.3-1.6 0-2.9-1.4-2.9-3v-8.7z"/><path id="XMLID_54_" class="st2" d="M268.3 363.7v-8.6c0-1.9 1.2-3.3 2.9-3.3 1.6 0 3 1.5 3 3.3V372c0 2.1-1.3 3.5-3.1 3.5-1.4 0-2.7-1.3-2.7-2.7-.1-3.1-.1-6.1-.1-9.1z"/><path id="XMLID_53_" class="st2" d="M309.7 363.5v-8.9c0-1.5 1.2-2.7 2.7-2.8 1.2-.1 2.6 1 2.9 2.2.1.5.2 1 .2 1.5v16.2c0 2.4-1.1 3.7-3 3.7-1.5 0-2.8-1.2-2.8-2.7-.1-3-.1-6.1 0-9.2-.1 0 0 0 0 0z"/><path id="XMLID_52_" class="st2" d="M350.8 363.6c0-2.7-.1-5.4 0-8.2 0-.9.3-1.9.9-2.6.6-.8 1.6-1.3 2.7-.9 1.2.4 2.1 1.1 2.2 2.5 0 .4.1.9.1 1.3v15.7c0 1.2 0 2.4-1.1 3.3-.9.7-1.8.9-2.8.6-1-.4-1.9-1.1-1.9-2.4 0-1.7-.1-3.4-.1-5.2 0-1.3.1-2.7 0-4.1.1 0 .1 0 0 0z"/><path id="XMLID_49_" d="M259.3 192.9h49.3c1.1 0 2.3 0 3.3.4 2.5 1 3.6 3.2 3.6 5.8.1 13.4.1 26.9 0 40.3 0 3.9-2.3 6.1-6.2 6.4-.6.1-1.3 0-1.9 0h-97.1c-2.8 0-5-.9-6.2-3.6-.4-.9-.5-1.9-.5-2.9V199c0-2.4.8-4.3 2.9-5.5.9-.5 2-.7 3-.7 16.5.1 33.2.1 49.8.1zm.1 41.1h42.8c1.2 0 1.6-.4 1.6-1.6v-25.7c0-2.2 0-2.2-2.1-2.2h-84.8c-1.5 0-1.6.1-1.6 1.5v26.4c0 1.1.3 1.5 1.5 1.5 14.1.1 28.3.1 42.6.1z"/><path id="XMLID_46_" d="M365.6 216.3c17.9.1 32.4 14.6 32.3 32.5 0 17.8-14.5 32.4-32.6 32.3-17.8-.1-32.3-14.6-32.2-32.6.1-17.7 14.6-32.2 32.5-32.2zM345 248.7c-.4 11.2 9.3 20.7 20.5 20.7s20.6-9.4 20.6-20.6c0-11.3-9.4-20.7-20.6-20.7-11.2 0-20.8 9.4-20.5 20.6z"/><path id="XMLID_45_" d="M274.2 278.2c0-4.8 4-9.1 8.8-8.9 5.1.2 8.8 3.7 8.8 8.9 0 4.9-3.6 8.7-8.8 8.8-4.8.1-8.9-3.9-8.8-8.8z"/><path id="XMLID_44_" class="st2" d="M259.4 234h-42.7c-1.1 0-1.5-.4-1.5-1.5v-26.4c0-1.4.1-1.5 1.6-1.5h84.8c2.1 0 2.1 0 2.1 2.2v25.7c0 1.2-.4 1.6-1.6 1.6-14.2-.1-28.5-.1-42.7-.1z"/><path id="XMLID_41_" class="st2" d="M345 248.7c-.3-11.2 9.3-20.6 20.5-20.5 11.2 0 20.6 9.4 20.6 20.7 0 11.2-9.4 20.6-20.6 20.6-11.2-.2-20.9-9.6-20.5-20.8zm20.5 8.9c4.8 0 8.9-4.1 8.9-8.9 0-4.8-4.1-8.9-8.9-8.9-4.8 0-8.9 4.1-8.9 8.9 0 4.8 4.2 8.9 8.9 8.9z"/><path id="XMLID_40_" d="M365.5 257.6c-4.8 0-8.9-4.1-8.9-8.9 0-4.8 4.1-8.9 8.9-8.9 4.8 0 8.9 4.1 8.9 8.9 0 4.8-4.1 8.9-8.9 8.9z"/></g></g></svg>