<?xml version="1.0" encoding="utf-8"?>
<!-- Generator: Adobe Illustrator 19.0.0, SVG Export Plug-In . SVG Version: 6.00 Build 0)  -->
<svg version="1.1" id="Layer_1" xmlns="http://www.w3.org/2000/svg" xmlns:xlink="http://www.w3.org/1999/xlink" x="0px" y="0px"
	 viewBox="0 0 595.3 841.9" style="enable-background:new 0 0 595.3 841.9;" xml:space="preserve">
<style type="text/css">
	.st0{fill-rule:evenodd;clip-rule:evenodd;fill:#33403F;}
	.st1{fill:#33403F;}
</style>
<g id="XMLID_810_">
	<path id="XMLID_811_" class="st0" d="M143.7,1119c-1.5-0.7-8.8-4.3-10.1-4.8c-1.4-0.5-2.4-0.7-3.3,0.7c-1,1.5-3.9,4.8-4.7,5.7
		c-0.9,1-1.7,1.1-3.2,0.4c-1.5-0.7-6.3-2.3-11.9-7.3c-4.4-3.9-7.4-8.7-8.2-10.2c-0.8-1.5-0.1-2.3,0.7-3c0.7-0.7,1.5-1.7,2.2-2.6
		c0.2-0.3,0.4-0.5,0.5-0.7c0.3-0.5,0.6-1,0.9-1.8c0.5-1,0.3-1.8-0.1-2.6c-0.4-0.7-3.3-8-4.6-10.9c-1.2-2.9-2.5-2.4-3.3-2.4
		c-0.9,0-1.8-0.1-2.8-0.1c-1,0-2.6,0.4-4,1.8c-1.4,1.5-5.2,5-5.2,12.3c0,1.7,0.3,3.4,0.8,5c1.5,5.2,4.7,9.5,5.3,10.2
		c0.7,1,10.3,16.3,25.3,22.2c15.1,5.9,15.1,3.9,17.8,3.7c2.7-0.2,8.8-3.5,10-7c1.2-3.4,1.2-6.4,0.9-7
		C146.1,1120.1,145.1,1119.8,143.7,1119z"/>
</g>
<path class="st1" d="M118,1043.6c-35.2,0-63.7,28.5-63.7,63.7c0,35.2,28.5,63.7,63.7,63.7c35.2,0,63.7-28.5,63.7-63.7
	C181.7,1072.1,153.2,1043.6,118,1043.6z M118,1160.6c-30,0-54.3-23.9-54.3-53.4c0-29.5,24.3-53.4,54.3-53.4
	c30,0,54.3,23.9,54.3,53.4C172.4,1136.7,148,1160.6,118,1160.6z"/>
<g id="XMLID_1_">
	<path id="XMLID_2_" class="st0" d="M291.7,294c-1.5-0.7-8.8-4.3-10.1-4.8c-1.4-0.5-2.4-0.7-3.3,0.7c-1,1.5-3.9,4.8-4.7,5.7
		c-0.9,1-1.7,1.1-3.2,0.4c-1.5-0.7-6.3-2.3-11.9-7.3c-4.4-3.9-7.4-8.7-8.2-10.2c-0.8-1.5-0.1-2.3,0.7-3c0.7-0.7,1.5-1.7,2.2-2.6
		c0.2-0.3,0.4-0.5,0.5-0.7c0.3-0.5,0.6-1,0.9-1.8c0.5-1,0.3-1.8-0.1-2.6c-0.4-0.7-3.3-8-4.6-10.9c-1.2-2.9-2.5-2.4-3.3-2.4
		c-0.9,0-1.8-0.1-2.8-0.1c-1,0-2.6,0.4-4,1.8c-1.4,1.5-5.2,5-5.2,12.3c0,1.7,0.3,3.4,0.8,5c1.5,5.2,4.7,9.5,5.3,10.2
		c0.7,1,10.3,16.3,25.3,22.2c15.1,5.9,15.1,3.9,17.8,3.7c2.7-0.2,8.8-3.5,10-7c1.2-3.4,1.2-6.4,0.9-7
		C294.1,295.1,293.1,294.8,291.7,294z"/>
</g>
<path class="st1" d="M266,218.6c-35.2,0-63.7,28.5-63.7,63.7c0,35.2,28.5,63.7,63.7,63.7c35.2,0,63.7-28.5,63.7-63.7
	C329.7,247.1,301.2,218.6,266,218.6z M266,335.6c-30,0-54.3-23.9-54.3-53.4c0-29.5,24.3-53.4,54.3-53.4c30,0,54.3,23.9,54.3,53.4
	C320.4,311.7,296,335.6,266,335.6z"/>
</svg>
