<svg version="1.1" id="Layer_1" xmlns="http://www.w3.org/2000/svg" x="0" y="0" viewBox="200 270 210 200" style="enable-background:new 0 0 595.3 841.9" xml:space="preserve"><style>.st2{fill:#fff}</style><g id="XMLID_810_"><path id="XMLID_811_" d="M143.7 1119c-1.5-.7-8.8-4.3-10.1-4.8-1.4-.5-2.4-.7-3.3.7-1 1.5-3.9 4.8-4.7 5.7-.9 1-1.7 1.1-3.2.4-1.5-.7-6.3-2.3-11.9-7.3-4.4-3.9-7.4-8.7-8.2-10.2-.8-1.5-.1-2.3.7-3 .7-.7 1.5-1.7 2.2-2.6.2-.3.4-.5.5-.7.3-.5.6-1 .9-1.8.5-1 .3-1.8-.1-2.6-.4-.7-3.3-8-4.6-10.9-1.2-2.9-2.5-2.4-3.3-2.4-.9 0-1.8-.1-2.8-.1-1 0-2.6.4-4 1.8-1.4 1.5-5.2 5-5.2 12.3 0 1.7.3 3.4.8 5 1.5 5.2 4.7 9.5 5.3 10.2.7 1 10.3 16.3 25.3 22.2 15.1 5.9 15.1 3.9 17.8 3.7 2.7-.2 8.8-3.5 10-7 1.2-3.4 1.2-6.4.9-7-.6-.5-1.6-.8-3-1.6z" style="fill-rule:evenodd;clip-rule:evenodd;fill:#33403f"/></g><path d="M118 1043.6c-35.2 0-63.7 28.5-63.7 63.7S82.8 1171 118 1171s63.7-28.5 63.7-63.7-28.5-63.7-63.7-63.7zm0 117c-30 0-54.3-23.9-54.3-53.4s24.3-53.4 54.3-53.4c30 0 54.3 23.9 54.3 53.4.1 29.5-24.3 53.4-54.3 53.4z" style="fill:#33403f"/><g id="XMLID_2_"><path id="XMLID_178_" class="st2" d="M421 472.6H192.6V261.5H421v211.1zM248.6 367v73.2c0 5.2 1.9 7.2 7 7.2h107.6c5 0 6.9-2.1 6.9-7.1V293.5c0-5-2-7.1-6.9-7.1H255.6c-5.1 0-7.1 2-7.1 7.2.1 24.6.1 49 .1 73.4z"/><path id="XMLID_175_" d="M248.6 367v-73.2c0-5.2 1.9-7.2 7.1-7.2h107.6c4.9 0 6.9 2.1 6.9 7.1v146.8c0 5-1.9 7.1-6.9 7.1H255.7c-5.1 0-7-2-7-7.2-.1-24.5-.1-49-.1-73.4zm2.7-.3v73.5c0 4.2.6 4.8 4.9 4.8h106.7c4 0 4.6-.6 4.6-4.7V293.6c0-3.8-.7-4.5-4.6-4.5H256c-4 0-4.6.6-4.6 4.7-.1 24.3-.1 48.6-.1 72.9z"/><path id="XMLID_162_" class="st2" d="M251.3 366.7v-72.9c0-4.1.6-4.7 4.6-4.7h106.9c3.9 0 4.6.7 4.6 4.5v146.7c0 4.1-.6 4.7-4.6 4.7H256.1c-4.3 0-4.9-.6-4.9-4.8.1-24.5.1-49 .1-73.5zm58.1-5.6h23.1c5.7 0 7.7-3.3 4.9-8.2-7.7-13.6-15.5-27.2-23.2-40.7-2.9-5-6.6-5-9.5 0l-23.1 40.5c-2.9 5.1-1.1 8.4 4.8 8.4h23zm45.9-9.6h1.4c.2-1.8.6-3.5.6-5.3.1-14.1 0-28.2 0-42.4 0-4.9-.5-5.5-5.4-5.5h-83.6c-1.3 0-2.8-.3-4 .2-1.1.5-2.5 1.7-2.7 2.7-.4 3-.3 6.1-.2 9.2 0 .6.8 1.3 1.3 1.9.5-.6 1.3-1.2 1.3-1.9.2-2.1.2-4.2 0-6.3-.3-2.6.5-3.4 3.3-3.4 28 .1 56.1.1 84.2.1 1 0 2 .1 3.2.1v47c0 1.2.4 2.4.6 3.6zm.9 31c-.4.1-.7.1-1.1.2-.2 1.2-.5 2.3-.5 3.5 0 14.6-.1 29.2 0 43.8 0 2.6-.5 3.4-3.3 3.4-28-.1-56.1-.1-84.2-.1-1 0-2-.1-3.2-.2 0-2.9.1-5.5-.1-8.1-.1-1.1-.9-2.2-1.4-3.3-.4 1-1.1 2.1-1.2 3.1-.1 2.4.2 4.8.1 7.2-.1 2.7 1.2 3.6 3.7 3.6h88.2c2.5 0 3.7-1 3.7-3.6 0-15.8.1-31.7.1-47.5.2-.6-.4-1.3-.8-2zm-47 25.7h27.4c3.2 0 4.9-1.5 4.8-4.1-.1-2.5-1.9-4.1-4.9-4.1h-53.9c-3.2 0-5.2 1.6-5.2 4.1 0 2.7 1.6 4.1 5.1 4.1h26.7zm.3-38.5c-9.1 0-18.2-.1-27.4.1-1.4 0-3.1.7-3.9 1.7-.7.9-1 3.1-.3 3.9 1 1.2 2.9 2.4 4.4 2.4 18 .2 35.9.1 53.9.1 3.3 0 5.2-1.5 5.2-4.1 0-2.7-1.6-4-5.1-4-8.9-.1-17.9-.1-26.8-.1zm-.3 23.3H336c3.6 0 5.4-1.4 5.4-4.1 0-2.6-1.9-4-5.2-4h-53.6c-3.4 0-5.2 1.4-5.2 4s1.8 4.1 5.1 4.1h26.7zm.1 30.5h27.4c3.6 0 5.7-2.8 4.4-5.6-1-2.1-2.8-2.6-5-2.6h-53.6c-3.3 0-5.2 1.6-5.2 4.1 0 2.5 1.7 4 4.9 4.1h27.1zm54.6-56.3c0-2.7.1-5.4 0-8.1-.1-3.3-1.8-4.9-5-5.1-1.9-.1-3.8-.1-5.8 0-3.3.2-4.9 1.7-4.9 5.1-.1 5.3-.1 10.6 0 15.8.1 3.7 1.9 5.1 6.1 5.2 7.5 0 9.4-.9 9.6-5.2.1-2.5 0-5.1 0-7.7zm-96.7 36.3c.1 0 .1 0 0 0 .1-3.8.1-7.7 0-11.5 0-3.3-1-4.1-4.4-4.1-3.5 0-4.4.8-4.5 4v23c0 3.2 1 4 4.5 4 3.3 0 4.3-.9 4.3-3.9.2-3.9.1-7.7.1-11.5zm0-72.6c0-4 .1-8.1 0-12.1-.1-3-1.1-3.6-4.9-3.7-2.6 0-4 1.1-4 3.7v23.6c0 3 1.1 3.8 4.4 3.8 3.3 0 4.3-.8 4.4-3.8.2-3.8.1-7.7.1-11.5zm-5.8 36.1h.2c0 5.3 0 10.5.1 15.8 0 .7.8 1.4 1.2 2.1.4-.8 1.2-1.5 1.2-2.3.1-10.4.1-20.7 0-31.1 0-.8-.8-1.7-1.2-2.5-.5.9-1.3 1.8-1.3 2.7-.3 5.2-.2 10.2-.2 15.3z"/><path id="XMLID_159_" d="M309.4 361.1h-23.1c-5.9 0-7.7-3.3-4.8-8.4l23.1-40.5c2.9-5 6.6-5 9.5 0 7.8 13.6 15.5 27.1 23.2 40.7 2.8 4.9.8 8.2-4.9 8.2h-23zm-.1-2.7h23.6c3.3 0 4-1.1 2.3-4.1-7.8-13.7-15.6-27.3-23.4-41-1.7-3-3.2-3-4.9-.1-7.8 13.6-15.6 27.3-23.4 40.9-1.8 3.1-1.1 4.2 2.4 4.2 7.9.1 15.6.1 23.4.1z"/><path id="XMLID_158_" d="M355.3 351.5c-.2-1.2-.6-2.4-.6-3.6v-47c-1.2-.1-2.2-.1-3.2-.1-28.1 0-56.1 0-84.2-.1-2.8 0-3.5.8-3.3 3.4.2 2.1.2 4.2 0 6.3-.1.7-.9 1.3-1.3 1.9-.4-.6-1.2-1.3-1.3-1.9-.1-3.1-.2-6.2.2-9.2.1-1 1.5-2.3 2.7-2.7 1.2-.5 2.6-.2 4-.2h83.6c4.9 0 5.4.6 5.4 5.5v42.4c0 1.8-.4 3.5-.6 5.3h-1.4z"/><path id="XMLID_157_" d="M356.2 382.5c.3.7 1 1.4 1 2.1 0 15.8-.1 31.7-.1 47.5 0 2.6-1.2 3.6-3.7 3.6h-88.2c-2.4 0-3.8-1-3.7-3.6.1-2.4-.2-4.8-.1-7.2.1-1.1.8-2.1 1.2-3.1.5 1.1 1.3 2.2 1.4 3.3.2 2.6.1 5.2.1 8.1 1.2.1 2.2.2 3.2.2 28.1 0 56.1 0 84.2.1 2.8 0 3.3-.8 3.3-3.4-.1-14.6-.1-29.2 0-43.8 0-1.2.3-2.3.5-3.5.2-.1.6-.2.9-.3z"/><path id="XMLID_154_" d="M309.2 408.2h-26.8c-3.4 0-5.1-1.4-5.1-4.1 0-2.5 2-4.1 5.2-4.1h53.9c3 0 4.9 1.6 4.9 4.1.1 2.6-1.7 4.1-4.8 4.1h-27.3zm.3-5.5h-26.2c-.7 0-1.4-.1-2 .1-.5.2-1.3.7-1.3 1.2-.1.5.5 1.3.9 1.5.6.3 1.5.3 2.2.3 17.5 0 34.9 0 52.4-.1 1.1 0 3.1-.9 3.1-1.5.2-2.1-1.7-1.5-3-1.5h-26.1z"/><path id="XMLID_151_" d="M309.5 369.7h26.8c3.5 0 5.1 1.4 5.1 4s-1.9 4.1-5.2 4.1c-18 0-35.9.1-53.9-.1-1.5 0-3.4-1.2-4.4-2.4-.6-.7-.4-3 .3-3.9.8-1 2.6-1.6 3.9-1.7h27.4zm-.3 5.5h10.4c5.7 0 11.3 0 17-.1.8 0 1.5-.8 2.2-1.2-.7-.6-1.3-1.3-2.1-1.8-.4-.2-1.1 0-1.7 0h-51.6c-.7 0-1.5-.2-2 .1-.6.4-1 1.1-1.6 1.7.6.4 1.1 1 1.7 1.2.6.2 1.3.1 2 .1h25.7z"/><path id="XMLID_148_" d="M309.2 393h-26.8c-3.3 0-5.1-1.5-5.1-4.1 0-2.6 1.8-4 5.2-4h53.6c3.4 0 5.2 1.4 5.2 4 0 2.7-1.8 4.1-5.4 4.1h-26.7zm-.1-2.5c8.8 0 17.7.1 26.5 0 1.1 0 2.2-1 3.2-1.5-1-.5-2-1.5-3-1.5-17.7-.1-35.4-.1-53 0-1 0-1.9 1-2.9 1.6 1 .5 2 1.4 3 1.4h26.2z"/><path id="XMLID_145_" d="M309.3 423.5h-27.1c-3.1 0-4.9-1.5-4.9-4.1 0-2.5 1.9-4.1 5.2-4.1h53.6c2.2 0 4.1.5 5 2.6 1.3 2.8-.9 5.6-4.4 5.6h-27.4zm-.1-5.5h-4.9c-7.4 0-14.8 0-22.2.1-.8 0-1.5.8-2.3 1.2.7.6 1.4 1.3 2.1 1.9.2.1.6 0 .8 0 17.7 0 35.3 0 53-.1 1 0 2-1 3-1.5-.9-.5-1.9-1.4-2.8-1.5-8.8-.2-17.7-.1-26.7-.1z"/><path id="XMLID_142_" d="M363.9 367.2c0 2.6.1 5.2 0 7.8-.2 4.2-2.1 5.2-9.6 5.2-4.2 0-6-1.5-6.1-5.2-.1-5.3-.1-10.6 0-15.8.1-3.4 1.6-4.9 4.9-5.1 1.9-.1 3.8-.1 5.8 0 3.3.2 4.9 1.8 5 5.1.1 2.6 0 5.3 0 8zm-2.6.3h-.1c.1-1.4.3-2.9.2-4.3-.1-6.6 1-6.6-6.2-6.5h-1.7c-2.1-.2-2.9.8-2.9 2.9.1 3.4 0 6.9 0 10.3.1 8.6-1.1 7.4 7.7 7.5h.6c1.7 0 2.4-.8 2.4-2.5-.1-2.5 0-5 0-7.4z"/><path id="XMLID_139_" d="M267.2 403.5V415c0 3-1 3.9-4.3 3.9-3.5 0-4.5-.8-4.5-4v-23c0-3.2 1-4 4.5-4 3.4 0 4.4.9 4.4 4.1 0 3.8 0 7.6-.1 11.5.1 0 .1 0 0 0zm-2.6-.1c-.1-3.7 0-7.5-.1-11.2 0-.6-1.1-1.5-1.9-1.7-.4-.1-1.6 1-1.6 1.6-.1 7.4-.1 14.8 0 22.2 0 .7 1.2 1.4 1.9 2.1.6-.8 1.6-1.5 1.6-2.3.2-3.6.1-7.1.1-10.7z"/><path id="XMLID_136_" d="M267.2 330.9v11.5c0 3-1 3.8-4.4 3.8-3.4 0-4.4-.8-4.4-3.8-.1-7.9 0-15.7 0-23.6 0-2.7 1.4-3.7 4-3.7 3.7 0 4.8.7 4.9 3.7 0 4 0 8.1-.1 12.1zm-2.6.1c.1-3.7 0-7.5.1-11.2 0-1.4-.4-2.4-1.9-2-.8.2-1.9 1.3-1.9 2-.1 7.3-.1 14.6-.1 21.9 0 1.6.7 2.5 2.2 2.1.6-.2 1.4-1.3 1.5-2.1.2-3.6.1-7.2.1-10.7z"/><path id="XMLID_135_" d="M261.4 367c0-5.1-.1-10.2.1-15.2 0-.9.9-1.8 1.3-2.7.4.8 1.2 1.7 1.2 2.5.1 10.4.1 20.7 0 31.1 0 .8-.8 1.5-1.2 2.3-.4-.7-1.2-1.4-1.2-2.1-.1-5.3-.1-10.5-.1-15.8 0-.1 0-.1-.1-.1z"/><path id="XMLID_132_" class="st2" d="M309.3 358.4H286c-3.6 0-4.2-1.1-2.4-4.2 7.8-13.7 15.6-27.3 23.4-40.9 1.7-2.9 3.2-2.9 4.9.1 7.8 13.6 15.6 27.3 23.4 41 1.7 2.9 1 4.1-2.3 4.1-7.9-.1-15.8-.1-23.7-.1zm.3-21.6c1.2-2.8 2.6-5.5 3.6-8.3.4-1 .1-2.2.1-3.3-.7.7-1.7 1.3-2.2 2.1-1.3 2.6-2.4 5.2-3.6 7.8-2 4.4-2 4.4 2.6 4.8.1 0 .2.3.3.4v.3c-2 3.1-4.1 6.2-6 9.5-.6 1-.6 2.3-.9 3.5 1-.8 2.3-1.3 3.1-2.3 2.1-3 4-6.1 5.9-9.2 2.8-4.4 2.8-4.5-2.2-5.1-.1.1-.2 0-.7-.2z"/><path id="XMLID_131_" class="st2" d="M309.5 402.7h26.2c1.2 0 3.1-.6 3 1.5 0 .6-2 1.5-3.1 1.5-17.5.1-34.9.1-52.4.1-.8 0-1.6 0-2.2-.3-.5-.2-1-1-.9-1.5 0-.4.8-1 1.3-1.2.6-.2 1.3-.1 2-.1h26.1z"/><path id="XMLID_130_" class="st2" d="M309.2 375.2h-25.6c-.7 0-1.4.1-2-.1-.6-.2-1.1-.8-1.7-1.2.5-.6.9-1.4 1.6-1.7.5-.3 1.3-.1 2-.1h51.6c.6 0 1.3-.2 1.7 0 .8.5 1.4 1.2 2.1 1.8-.7.4-1.5 1.2-2.2 1.2-5.7.1-11.3.1-17 .1h-10.5z"/><path id="XMLID_129_" class="st2" d="M309.1 390.5c-8.7 0-17.5 0-26.2-.1-1 0-2-.9-3-1.4 1-.6 1.9-1.6 2.9-1.6 17.7-.1 35.4-.1 53 0 1 0 2 1 3 1.5-1.1.5-2.1 1.5-3.2 1.5-8.8.1-17.7.1-26.5.1z"/><path id="XMLID_128_" class="st2" d="M309.2 418c8.9 0 17.9 0 26.8.1 1 0 1.9 1 2.8 1.5-1 .5-2 1.5-3 1.5-17.7.1-35.3.1-53 .1-.3 0-.7.1-.8 0-.7-.6-1.4-1.2-2.1-1.9.8-.4 1.5-1.2 2.3-1.2 7.4-.1 14.8-.1 22.2-.1h4.8z"/><path id="XMLID_127_" class="st2" d="M361.3 367.5v7.5c0 1.7-.7 2.5-2.4 2.5h-.6c-8.8-.1-7.7 1.1-7.7-7.5v-10.3c0-2.1.8-3 2.9-2.9h1.7c7.1-.2 6.1-.1 6.2 6.5 0 1.4-.2 2.9-.2 4.3 0-.1 0-.1.1-.1z"/><path id="XMLID_126_" class="st2" d="M264.6 403.4c0 3.5.1 7.1-.1 10.6 0 .8-1 1.5-1.6 2.3-.7-.7-1.9-1.4-1.9-2.1-.1-7.4-.1-14.8 0-22.2 0-.6 1.2-1.7 1.6-1.6.8.2 1.9 1.1 1.9 1.7.1 3.8 0 7.6.1 11.3z"/><path id="XMLID_125_" class="st2" d="M264.6 331c0 3.5.1 7.1-.1 10.6 0 .7-.8 1.9-1.5 2.1-1.5.4-2.2-.5-2.2-2.1 0-7.3 0-14.6.1-21.9 0-.7 1.1-1.8 1.9-2 1.5-.4 1.9.6 1.9 2-.1 3.8-.1 7.5-.1 11.3z"/><path id="XMLID_124_" d="M309.6 336.8c.4.2.6.3.8.3 5 .6 5 .6 2.2 5.1-2 3.1-3.8 6.2-5.9 9.2-.7 1-2 1.6-3.1 2.3.3-1.2.3-2.5.9-3.5 1.9-3.2 4-6.3 6-9.5v-.3c-.1-.1-.2-.4-.3-.4-4.6-.5-4.6-.5-2.6-4.8 1.2-2.6 2.3-5.3 3.6-7.8.4-.9 1.4-1.4 2.2-2.1 0 1.1.3 2.3-.1 3.3-1.1 2.7-2.5 5.4-3.7 8.2z"/></g></svg>