<?xml version="1.0" encoding="utf-8"?>
<!-- Generator: Adobe Illustrator 19.0.0, SVG Export Plug-In . SVG Version: 6.00 Build 0)  -->
<svg version="1.1" id="Layer_1" xmlns="http://www.w3.org/2000/svg" xmlns:xlink="http://www.w3.org/1999/xlink" x="0px" y="0px"
	 viewBox="0 0 595.3 841.9" style="enable-background:new 0 0 595.3 841.9;" xml:space="preserve">
<style type="text/css">
	.st0{fill:#FFFFFE;}
	.st1{fill:#FFFFFF;}
	.st2{fill-rule:evenodd;clip-rule:evenodd;fill:#FFCC32;}
	.st3{fill-rule:evenodd;clip-rule:evenodd;fill:#FFCC32;stroke:#FFCC32;stroke-width:0.216;stroke-miterlimit:2.6131;}
	.st4{font-family:'MicrosoftSansSerif';}
	.st5{font-size:14.3461px;}
	.st6{fill:#FFCD33;}
	.st7{fill-rule:evenodd;clip-rule:evenodd;fill:#FFFFFF;}
</style>
<path id="XMLID_73_" class="st0" d="M297.6,445.2c4.5-0.9,7.6-3.8,10.7-6.9c29.5-29.6,59.1-59.1,88.6-88.6c3.3-3.3,6.6-6.4,7.7-11.1
	c0,35.5,0,71.1,0,106.7C369,445.2,333.3,445.2,297.6,445.2z"/>
<path id="XMLID_72_" class="st1" d="M297.6,231.8c-0.3,0.2-0.6,0.4-1,0.5c-2.6,0.8-4.8,2.2-6.7,4.1c-31.4,31.4-62.7,62.7-94.1,94.1
	c-2.2,2.2-3.4,4.9-4.6,7.7c0-35.4,0-70.8,0-106.4C226.7,231.8,262.2,231.8,297.6,231.8z"/>
<path id="XMLID_71_" class="st0" d="M404.7,333.8c-0.9-4.4-3.8-7.6-6.9-10.6c-14.3-14.2-28.6-28.5-42.8-42.8
	c-0.6-0.6-1.3-1.1-1.9-1.6c-0.1,0-0.2,0-0.3,0c-0.3-0.5-0.5-1.1-0.9-1.5c-13.7-13.7-27.3-27.3-41-41c-2.3-2.3-5.1-3.6-8.1-4.4
	c34,0,68,0,102,0C404.7,265.8,404.7,299.8,404.7,333.8z"/>
<path id="XMLID_70_" class="st0" d="M191.3,343.6c1.2,4.7,4.5,7.9,7.8,11.1c27.5,27.4,55,54.9,82.4,82.4c3.4,3.4,6.6,6.9,11.5,8.1
	c-33.8,0-67.7,0-101.6,0C191.3,411.3,191.3,377.5,191.3,343.6z"/>
<g id="XMLID_2_">
	<path id="XMLID_54_" class="st2" d="M289.3,469.5c7.3,0,13.3,5.9,13.3,13.1c0,7.2-5.9,13.1-13.3,13.1c-7.3,0-13.3-5.9-13.3-13.1
		C276.1,475.4,282,469.5,289.3,469.5L289.3,469.5z M289.3,473.9c-4.7,0-8.5,3.8-8.5,8.6c0,4.7,3.8,8.6,8.5,8.6
		c4.7,0,8.5-3.8,8.5-8.6C297.9,477.7,294,473.9,289.3,473.9z"/>
	<path id="XMLID_51_" class="st2" d="M354.5,469.5c7.3,0,13.3,5.9,13.3,13.1c0,7.2-5.9,13.1-13.3,13.1c-7.3,0-13.3-5.9-13.3-13.1
		C341.3,475.4,347.2,469.5,354.5,469.5L354.5,469.5z M354.5,473.9c-4.7,0-8.5,3.8-8.5,8.6c0,4.7,3.8,8.6,8.5,8.6
		c4.7,0,8.5-3.8,8.5-8.6C363.1,477.7,359.2,473.9,354.5,473.9z"/>
	<rect id="XMLID_50_" x="456.4" y="469.6" class="st2" width="4.7" height="26"/>
	<polygon id="XMLID_49_" class="st2" points="443.3,469.5 449.3,469.5 459.1,482.8 453.1,482.8 	"/>
	<polygon id="XMLID_48_" class="st2" points="443.3,495.6 449.3,495.6 459.1,482.3 453.1,482.3 	"/>
	<polygon id="XMLID_47_" class="st2" points="474.4,469.5 468.3,469.5 458.5,482.8 464.6,482.8 	"/>
	<polygon id="XMLID_46_" class="st2" points="474.4,495.6 468.3,495.6 458.5,482.3 464.6,482.3 	"/>
	<polygon id="XMLID_45_" class="st3" points="161.1,472.5 165.1,469.5 176.8,495.7 171.5,495.7 	"/>
	<polygon id="XMLID_44_" class="st3" points="162.3,469.5 166.2,472.7 156.7,495.6 151.5,495.6 	"/>
	<polygon id="XMLID_43_" class="st3" points="162.3,469.5 165.1,469.5 163.7,478.8 	"/>
	<polygon id="XMLID_42_" class="st2" points="211.3,482.5 211.4,482.3 211.3,482.1 	"/>
	<polygon id="XMLID_41_" class="st2" points="211.3,481.5 212,481.5 220.7,469.5 226.1,469.5 217.1,481.9 228.3,495.6 222.3,495.6 
		214.3,485.8 211.3,489.9 211.3,495.6 206.7,495.6 206.7,491.3 206.7,488.8 206.7,469.6 211.3,469.6 	"/>
	<polygon id="XMLID_40_" class="st2" points="372.2,469.5 376.7,469.5 376.7,479.8 388.9,479.8 388.9,469.5 393.4,469.5 
		393.4,495.6 388.9,495.6 388.9,483.4 376.7,483.4 376.7,495.6 372.2,495.6 	"/>
	<polygon id="XMLID_39_" class="st3" points="331.9,469.5 333.5,469.5 336.3,469.5 337.8,469.5 337.8,495.6 333.5,495.6 
		333.5,475.2 324.7,495.6 323.2,495.6 320.4,495.6 318.9,495.6 310.9,475.7 310.9,495.6 306.5,495.6 306.5,469.5 307.9,469.5 
		310.9,469.5 312.3,469.5 321.9,489.6 	"/>
	<path id="XMLID_36_" class="st2" d="M435.8,469.6h4.7v12.9v13h-4.7v-2.9c-2.1,1.7-4.9,2.7-8.4,2.7c-7.3,0-13.3-5.7-13.3-12.8
		c0-7.1,5.9-12.8,13.3-12.8c3.5,0,6.3,1,8.4,2.7V469.6L435.8,469.6z M427.4,474c-4.7,0-8.5,3.8-8.5,8.4c0,4.6,3.8,8.4,8.5,8.4
		C438.6,490.8,438.6,474,427.4,474z"/>
	<g id="XMLID_31_">
		<path id="XMLID_33_" class="st2" d="M260.4,469.5c7.3,0,13.3,5.9,13.3,13.1c0,7.2-5.9,13.1-13.3,13.1
			C242.9,495.7,242.9,469.5,260.4,469.5L260.4,469.5z M260.4,473.9c-4.7,0-8.5,3.8-8.5,8.6c0,4.7,3.8,8.6,8.5,8.6
			c4.7,0,8.5-3.8,8.5-8.6C268.9,477.7,265.1,473.9,260.4,473.9z"/>
		<rect id="XMLID_32_" x="247.3" y="469.5" class="st3" width="4.3" height="34"/>
	</g>
	<g id="XMLID_27_">
		<rect id="XMLID_30_" x="226.7" y="469.6" class="st2" width="20.1" height="4.4"/>
		<rect id="XMLID_29_" x="234.7" y="473.8" class="st3" width="4.4" height="21.8"/>
	</g>
	<g id="XMLID_24_">
		<rect id="XMLID_26_" x="395.1" y="469.4" class="st2" width="20.1" height="4.4"/>
		<rect id="XMLID_25_" x="403" y="473.7" class="st3" width="4.4" height="21.8"/>
	</g>
	<path id="XMLID_23_" class="st2" d="M138.4,469.5c7.3,0,13.3,5.9,13.3,13.1c0,7.2-5.9,13.1-13.3,13.1c-5.9,0-11-3.9-12.7-9.2h5.1v0
		c1.4,2.7,4.3,4.6,7.5,4.6c4,0,7.3-2.8,8.3-6.5h0.3v-2.1v-2.2h-0.3c-1-3.7-4.3-6.4-8.2-6.4c-3.3,0-6.1,1.8-7.5,4.6v-0.1h-5
		C127.6,473.2,132.5,469.5,138.4,469.5z"/>
	<rect id="XMLID_22_" x="131.5" y="480.3" class="st2" width="15.4" height="4.4"/>
	<rect id="XMLID_21_" x="179.6" y="480.3" class="st2" width="23" height="4.4"/>
	<path id="XMLID_20_" class="st2" d="M197.5,486.6c-1.4,2.7-4.3,4.5-7.5,4.5c-4.7,0-8.5-3.8-8.5-8.6c0-4.7,3.8-8.6,8.5-8.6
		c4.7,0,8.5,3.8,8.5,8.6c0,0.7-0.1,1.4-0.3,2.1h4.8c0.1-0.7,0.2-1.3,0.2-2c0-7.2-5.9-13.1-13.3-13.1c-7.3,0-13.3,5.9-13.3,13.1
		c0,7.2,5.9,13.1,13.3,13.1c5.9,0,11-3.9,12.7-9.2H197.5z"/>
	<g id="XMLID_4_">
		<rect id="XMLID_16_" x="340.6" y="499" class="st2" width="120.1" height="25.8"/>
		<path id="XMLID_8_" class="st2" d="M340.6,524.8c7.9,0,14.4-5.8,14.4-12.9c0-7.1-6.5-12.9-14.4-12.9c-7.9,0-14.4,5.8-14.4,12.9
			C326.2,519,332.6,524.8,340.6,524.8z"/>
		<path id="XMLID_7_" class="st2" d="M460.7,524.8c7.9,0,14.4-5.8,14.4-12.9c0-7.1-6.5-12.9-14.4-12.9c-7.9,0-14.4,5.8-14.4,12.9
			C446.3,519,452.8,524.8,460.7,524.8z"/>
		<rect id="XMLID_6_" x="326.2" y="511.9" class="st2" width="14.4" height="12.9"/>
		<rect id="XMLID_5_" x="460.8" y="498.8" class="st2" width="14.4" height="12.9"/>
	</g>
	<text id="XMLID_3_" transform="matrix(1.0911 0 0 1 333.2686 517.6006)"><tspan x="0" y="0" class="st4 st5">Ц</tspan><tspan x="10.7" y="0" class="st4 st5">АХИМ ДЭЛГҮҮР</tspan></text>
</g>
<g id="XMLID_9_">
	<g>
		<path id="XMLID_65_" class="st6" d="M191.4,340.4c0-1.8,0-3.6,0-5.4c1.2-4.1,4-7.1,6.9-10c30.4-30.3,60.7-60.6,91-91
			c0.6-0.6,1.3-1.2,1.9-1.9c1.8-1.7,4.2-2.4,6.4-3.4c1.7,0,3.4,0,5.1,0c4.6,1,7.8,4.1,11,7.3c27.9,27.9,55.7,55.8,83.7,83.7
			c3.2,3.2,6.3,6.4,7.3,11c0,1.6,0,3.1,0,4.7c-1.3,5.6-5.6,9-9.4,12.8c-19.6,19.6-39.1,39.1-58.7,58.7c-9.4,9.4-18.8,18.7-28.1,28.2
			c-3.1,3.2-6.3,6.1-10.8,7c-1.6,0-3.1,0-4.7,0c-4.1-1.1-7.1-3.7-10-6.7c-28.2-28.3-56.5-56.6-84.8-84.8
			C195.2,347.6,192.4,344.6,191.4,340.4z"/>
		<path id="XMLID_64_" class="st0" d="M297.7,442c4.5-0.9,7.7-3.9,10.8-7c9.3-9.4,18.7-18.8,28.1-28.2
			c19.6-19.6,39.1-39.1,58.7-58.7c3.8-3.8,8.1-7.2,9.4-12.8c0,35.1,0,70.1,0,105.2c0,1.2-0.3,1.5-1.5,1.5
			C368,442,332.8,442,297.7,442z"/>
		<path id="XMLID_63_" class="st1" d="M297.7,228.8c-2.2,1.1-4.6,1.7-6.4,3.4c-0.6,0.6-1.3,1.2-1.9,1.9c-30.3,30.3-60.6,60.7-91,91
			c-3,2.9-5.7,5.9-6.9,10c0-35,0-69.9,0-104.9c0-1.2,0.2-1.5,1.5-1.5C227.8,228.8,262.7,228.8,297.7,228.8z"/>
		<path id="XMLID_62_" class="st0" d="M404.6,330.7c-1-4.6-4.1-7.8-7.3-11c-27.9-27.8-55.8-55.7-83.7-83.7c-3.2-3.2-6.4-6.3-11-7.3
			c33.5,0,67,0,100.6,0c1.2,0,1.4,0.2,1.4,1.4C404.6,263.6,404.6,297.1,404.6,330.7z"/>
		<path id="XMLID_61_" class="st0" d="M191.4,340.4c1.1,4.2,3.8,7.2,6.8,10.1c28.3,28.2,56.6,56.5,84.8,84.8c2.9,2.9,5.9,5.6,10,6.7
			c-33.4,0-66.8,0-100.1,0c-1.2,0-1.5-0.2-1.5-1.5C191.4,407.2,191.4,373.8,191.4,340.4z"/>
	</g>
</g>
<path id="XMLID_66_" class="st7" d="M292,369.1h35.6c-0.3,0.5-0.6,1.6-0.8,2.2l-0.4,1.3c0,0,0,0,0,0.1c0,0,0,0,0,0.1l-3.9,11.3
	c-0.1,0.2,0,0.1-0.1,0.3c-0.1,0.2,0,0-0.1,0.2c-0.6,1.5-1,3.3-1.7,4.8l-2.3,6.8c0,0,0,0.1,0,0.1c0,0,0,0,0,0.1l-0.3,0.8
	c-0.1,0.4,0,0.2-0.2,0.6c-0.3,0.7-0.4,1.4-0.7,2.1l-0.1,0.4c-0.1,0.2,0,0.1-0.1,0.3l-2.9,8.5c0,0,0,0,0,0.1l-1.6,4.5
	c-0.1,0.3-0.1,0.4-0.2,0.6c-0.1,0.2-0.1,0.3-0.2,0.5l-2.4,6.9c0,0.1,0,0.2-0.1,0.3l-1,2.7c-0.1,0.2-0.1,0.3-0.2,0.6
	c0,0.1-0.1,0.4-0.2,0.5l-0.9,2.7c0,0,0,0.1-0.1,0.2l-1.7,5.1c-0.4,1.5-1.7,4.5-2,5.9c0.5,0,0.4-0.2,0.6-0.6c0.2-0.3,0.3-0.5,0.5-0.8
	l0.5-0.7c0.4-0.7,1.1-1.3,1.4-2c0,0,0,0,0,0l2.1-3c0-0.1,0.1-0.1,0.1-0.2c0,0,0,0,0-0.1c0,0,0,0,0-0.1c0,0,0,0,0-0.1l2.3-3.3
	c0,0,0.1-0.2,0.1-0.2l0.4-0.6c0.2-0.3,0.3-0.4,0.5-0.7c0.5-0.8,1.3-1.8,1.8-2.6l5.6-8.2c0,0,0,0,0-0.1l0.8-1.1c0,0,0,0,0-0.1
	l8.1-11.9c0,0,0,0,0,0c0,0,0,0,0,0c0.4-0.8,2-2.9,2.5-3.7c0,0,0.1-0.2,0.1-0.2l3.2-4.6c0.2-0.3,0.3-0.5,0.5-0.8l1.3-1.9
	c0.1-0.2,0,0,0.1-0.2c0.1-0.1,0-0.1,0.1-0.2l3-4.4c0.1-0.2,0.4-0.4,0.5-0.7l3.5-5.2c0.2-0.3,0.3-0.5,0.5-0.8l4-6
	c0.3-0.5,0.7-0.9,1-1.5l0.1-0.3c0,0,0,0,0-0.1l3.1-4.6c0.1-0.2,0,0,0.1-0.2l0.9-1.2c0.1-0.2,0,0,0.1-0.1c0,0,0,0,0-0.1l0.6-0.9
	c0.8-1.3,1.8-2.4,2.5-3.7l5.6-8.2c0.1-0.2,0.2-0.2,0.3-0.3c0.1-0.1,0.1-0.1,0.1-0.2l0.2-0.3c0,0,0,0,0-0.1l1.9-2.8
	c0.1-0.1,0.1-0.1,0.1-0.2l0.9-1.3c0.5-0.6,2.4-3.1,2.5-3.8h-40l1.4-4.6c0.1-0.4,0.2-0.7,0.3-1.1l1.6-5.2c0.1-0.3,0.1-0.3,0.2-0.6
	l1.3-4c0.6-1.6,1-3.4,1.6-5l0.8-2.7c0,0,0,0,0-0.1l1.8-5.5c0.5-1.2,0.8-2.6,1.2-3.8c0-0.1,0.1-0.2,0.1-0.3l0.2-0.6
	c0.6-1.4,0.8-2.9,1.3-4.2c0,0,0.1-0.1,0.1-0.3c0.1-0.2,0.1-0.4,0.2-0.6c0.1-0.3,0.1-0.3,0.2-0.5c0.1-0.3,0-0.2,0.1-0.5
	c0-0.1,0.1-0.4,0.2-0.5c0.1-0.3,0.1-0.3,0.2-0.6l0.3-1c0.1-0.2,0.1-0.2,0.2-0.5c0,0,0.1-0.3,0.1-0.3l2.1-6.7
	c0.1-0.2,0.1-0.4,0.2-0.6c0.1-0.4,0.2-0.8,0.3-1.2l4.8-15.5c0,0,0-0.1,0-0.1c0,0,0,0,0-0.1c0,0,0,0,0-0.1l1.5-4.7
	c0.1-0.2,0.2-0.3,0.1-0.5c-0.5,0.2-1.6,2.5-2,2.9l-1.3,2.3c0,0,0,0,0,0.1c0,0,0,0,0,0.1c-0.1,0.2,0,0-0.1,0.2
	c-0.1,0.1,0,0.1-0.1,0.2l-3.3,5.4c-0.1,0.3-0.3,0.5-0.5,0.8l-0.3,0.6c0,0,0,0-0.1,0.2l-3.2,5.3c-0.2,0.3-0.3,0.5-0.5,0.7l-0.2,0.3
	c0,0,0,0,0,0.1l-2.3,3.8c-0.1,0.1-0.1,0.2-0.2,0.4l-1.9,3c-0.1,0.2-0.1,0.2-0.2,0.4c-0.1,0.1-0.1,0.1-0.1,0.2l-6.5,10.8
	c-0.3,0.6-0.6,0.9-0.9,1.5l-4.8,8c-0.1,0.1,0,0.1-0.1,0.2l-0.2,0.4c-0.1,0.2-0.1,0.3-0.2,0.5l-1.4,2.2c-0.5,0.7-0.8,1.5-1.4,2.2
	c-0.1,0.1-0.1,0.2-0.2,0.4L318,326c-0.4,0.8-1.1,1.7-1.5,2.5c0,0,0,0,0,0l-5.7,9.4c0,0,0,0,0,0.1l-2.9,4.9c0,0-0.1,0.1-0.1,0.2
	l-1.8,3.1c-0.8,1.1-1.3,2.3-2,3.4c-0.2,0.3-0.3,0.5-0.5,0.7l-0.9,1.6c-0.1,0.2-0.1,0.2-0.2,0.4c0,0,0,0,0,0.1l-4.8,7.9
	c-0.2,0.3-0.3,0.4-0.5,0.7l-0.9,1.5c-0.2,0.3-0.3,0.5-0.5,0.8c0,0-0.1,0.2-0.1,0.2l-3,5c0,0,0,0,0,0.1l-0.3,0.4
	C292,369,292,368.8,292,369.1L292,369.1z"/>
</svg>
