<svg version="1.1" id="Layer_1" xmlns="http://www.w3.org/2000/svg" x="0" y="0" viewBox="220 290 80 80" style="enable-background:new 0 0 595.3 841.9" xml:space="preserve"><style>.st2{fill:#fff}</style><g id="XMLID_810_"><path id="XMLID_811_" d="M143.7 1119c-1.5-.7-8.8-4.3-10.1-4.8-1.4-.5-2.4-.7-3.3.7-1 1.5-3.9 4.8-4.7 5.7-.9 1-1.7 1.1-3.2.4-1.5-.7-6.3-2.3-11.9-7.3-4.4-3.9-7.4-8.7-8.2-10.2-.8-1.5-.1-2.3.7-3 .7-.7 1.5-1.7 2.2-2.6.2-.3.4-.5.5-.7.3-.5.6-1 .9-1.8.5-1 .3-1.8-.1-2.6-.4-.7-3.3-8-4.6-10.9-1.2-2.9-2.5-2.4-3.3-2.4-.9 0-1.8-.1-2.8-.1-1 0-2.6.4-4 1.8-1.4 1.5-5.2 5-5.2 12.3 0 1.7.3 3.4.8 5 1.5 5.2 4.7 9.5 5.3 10.2.7 1 10.3 16.3 25.3 22.2 15.1 5.9 15.1 3.9 17.8 3.7 2.7-.2 8.8-3.5 10-7 1.2-3.4 1.2-6.4.9-7-.6-.5-1.6-.8-3-1.6z" style="fill-rule:evenodd;clip-rule:evenodd;fill:#33403f"/></g><path d="M118 1043.6c-35.2 0-63.7 28.5-63.7 63.7S82.8 1171 118 1171s63.7-28.5 63.7-63.7-28.5-63.7-63.7-63.7zm0 117c-30 0-54.3-23.9-54.3-53.4s24.3-53.4 54.3-53.4c30 0 54.3 23.9 54.3 53.4.1 29.5-24.3 53.4-54.3 53.4z" style="fill:#33403f"/><g id="XMLID_1_"><path id="XMLID_102_" class="st2" d="M307.5 374.2h-95.3v-88.1h95.3v88.1zm-82.4-44v21.4c0 7.5 5.8 13.3 13.3 13.3h42.8c7.5 0 13.3-5.8 13.3-13.3V309c0-7.6-5.8-13.4-13.3-13.4h-42.7c-7.6 0-13.3 5.8-13.3 13.4-.1 7-.1 14.1-.1 21.2z"/><path id="XMLID_99_" d="M225.1 330.2V309c0-7.6 5.8-13.4 13.3-13.4h42.7c7.6 0 13.3 5.8 13.3 13.4v42.6c0 7.5-5.8 13.3-13.3 13.3h-42.8c-7.5 0-13.3-5.8-13.3-13.3.1-7.2.1-14.3.1-21.4zm34.7-33.1c-7.1 0-14.2.1-21.4-.1-6.4-.1-11.9 5.2-11.9 12 .1 14 0 27.9 0 41.9 0 7.4 5 12.4 12.4 12.4h41.6c1.1 0 2.2-.1 3.2-.3 5.6-1.3 9.2-5.9 9.2-11.7v-42c0-.9-.1-1.8-.2-2.7-.8-5.1-5.5-9.4-10.7-9.4-7.3-.1-14.8-.1-22.2-.1z"/><path id="XMLID_96_" class="st2" d="M259.8 297.1c7.4 0 14.9-.1 22.3 0 5.2.1 9.9 4.3 10.7 9.4.1.9.2 1.8.2 2.7v42c0 5.8-3.6 10.4-9.2 11.7-1 .2-2.1.3-3.2.3H239c-7.4 0-12.4-5-12.4-12.4v-41.9c0-6.7 5.5-12.1 11.9-12 7.1.3 14.2.2 21.3.2zm.1 63.2H281c5.3 0 9.1-3.5 9.1-8.8.1-14.2.1-28.4 0-42.6 0-4.9-3.7-8.8-8.3-8.8h-43.9c-4.2 0-7.8 3.5-8.1 7.6-.1 1.7-.1 3.5-.1 5.3v38c0 6.2 4.9 9.4 9.3 9.3 6.9-.1 13.9 0 20.9 0z"/><path id="XMLID_93_" d="M259.9 360.3c-7 0-14-.1-21 0-4.5.1-9.3-3.1-9.3-9.3.1-12.7 0-25.4 0-38 0-1.8 0-3.5.1-5.3.3-4.1 4-7.6 8.1-7.6h43.9c4.6 0 8.3 3.9 8.3 8.8.1 14.2.1 28.4 0 42.6 0 5.3-3.8 8.8-9.1 8.8h-21zM231.1 330c0 7 .1 14.1 0 21.1-.1 3.9 2.8 7.7 7.7 7.7H281c5.1 0 7.6-4.1 7.6-7.5-.1-14.1-.1-28.2 0-42.2 0-3.4-2.4-7.5-7.4-7.5h-42.6c-4.4 0-7.4 3.1-7.4 7.5-.1 7-.1 13.9-.1 20.9z"/><path id="XMLID_90_" class="st2" d="M231.1 330v-21c0-4.4 3-7.5 7.4-7.5h42.6c5 0 7.5 4.2 7.4 7.5-.1 14.1-.1 28.2 0 42.2 0 3.4-2.5 7.5-7.6 7.5h-42.2c-4.8 0-7.8-3.8-7.7-7.7.2-6.9.1-13.9.1-21zm17.8.2V350c0 1.2.4 1.5 1.5 1.5H270c1.5 0 1.5 0 1.5-1.6V333c0-.6.1-1.1.2-1.6 1.3-5.5 2.6-11.1 4-16.6.2-.8 0-1.2-.5-1.7-1.1-1.1-2.2-2.3-3.3-3.3-.5-.4-1.2-.8-1.9-.8-6.5-.1-13 0-19.6-.1-1.1 0-1.5.3-1.5 1.5v19.8z"/><path id="XMLID_85_" d="M248.9 330.2v-19.8c0-1.2.4-1.5 1.5-1.5 6.5 0 13 0 19.6.1.6 0 1.4.4 1.9.8 1.2 1 2.2 2.2 3.3 3.3.5.5.7.9.5 1.7-1.4 5.5-2.7 11.1-4 16.6-.1.5-.2 1.1-.2 1.6v16.9c0 1.6 0 1.6-1.5 1.6h-19.6c-1.1 0-1.5-.3-1.5-1.5v-19.8zm25.1-15.3c-.2-.1-.2-.2-.3-.2h-18.5c-.3 0-.8.5-.9.8-1 4-1.8 8-2.9 11.9-.9 3.3-1.2 6.6-1.2 10 .1 3.7 0 7.4 0 11v1.3h19.6v-1.4c0-3.4.1-6.8 0-10.2-.2-4.6.4-9 1.7-13.4 1-3.1 1.7-6.5 2.5-9.8zm-22.1-4.5c-.1.1-.2.3-.3.4.5.4 1.1.8 1.5 1.3.8 1 1.7 1.2 2.9 1.2 5.2-.1 10.4 0 15.6 0h1.5c-1.5-1.7-2.6-3.3-5-2.9-.9.2-1.8 0-2.7 0h-13.5zm-1.4 13.9c.2-.2.3-.2.3-.3.7-3 1.5-6 2.2-9 .1-.3.1-.7-.1-.9-.7-.8-1.5-1.6-2.5-2.5.1 4.4.1 8.5.1 12.7z"/><path id="XMLID_81_" class="st2" d="M274 314.9c-.8 3.3-1.5 6.7-2.4 9.9-1.2 4.4-1.9 8.8-1.7 13.4.2 3.4 0 6.8 0 10.2v1.4h-19.6v-1.3c0-3.7.1-7.4 0-11-.1-3.4.2-6.7 1.2-10 1.1-3.9 1.9-8 2.9-11.9.1-.3.6-.8.9-.8h18.5c0-.1 0 0 .2.1zm-10.9 27.7v-1.2c-.1-1.7-1.1-2.9-2.6-3-1.8-.1-3.1.8-3.3 2.5-.1 1.2-.1 2.4.1 3.6.3 1.5 1.7 2.3 3.2 2.1 1.4-.2 2.4-1.2 2.5-2.7.2-.4.1-.8.1-1.3zm1.3-24.8c-.2-.2-.4-.7-.7-.7-.3 0-.8.3-.8.6-.5 1.9-1 3.8-1.4 5.8 0 .2.3.7.5.8.3 0 .8-.2.9-.4.5-2 1-3.9 1.5-6.1z"/><path id="XMLID_80_" class="st2" d="M251.9 310.4h13.4c.9 0 1.9.1 2.7 0 2.4-.5 3.5 1.2 5 2.9h-17.1c-1.2 0-2.1-.2-2.9-1.2-.4-.5-1-.8-1.5-1.3.2-.1.3-.3.4-.4z"/><path id="XMLID_79_" class="st2" d="M250.5 324.3v-12.8l2.5 2.5c.2.2.1.6.1.9-.7 3-1.4 6-2.2 9-.1.2-.3.2-.4.4z"/><path id="XMLID_76_" d="M263.1 342.6v1.3c-.1 1.5-1.1 2.5-2.5 2.7-1.6.2-3-.6-3.2-2.1-.2-1.2-.3-2.4-.1-3.6.2-1.8 1.6-2.7 3.3-2.5 1.6.1 2.5 1.3 2.6 3 0 .4-.1.8-.1 1.2zm-1.5 0v-1.2c-.1-.9-.6-1.5-1.5-1.5s-1.4.6-1.4 1.5v2.5c.1.8.6 1.3 1.4 1.3.8 0 1.3-.5 1.4-1.3.2-.5.1-.9.1-1.3z"/><path id="XMLID_75_" d="M264.4 317.8c-.5 2.1-1 4.1-1.5 6-.1.2-.6.5-.9.4-.2 0-.5-.5-.5-.8.4-1.9.9-3.9 1.4-5.8.1-.3.6-.6.8-.6.3.2.5.6.7.8z"/><path id="XMLID_74_" class="st2" d="M261.6 342.6v1.3c-.1.8-.6 1.3-1.4 1.3-.8 0-1.4-.5-1.4-1.3-.1-.8 0-1.7 0-2.5 0-.9.5-1.4 1.4-1.5.9 0 1.5.5 1.5 1.5 0 .4-.1.8-.1 1.2z"/></g></svg>